<?xml version="1.0" encoding="UTF-8"?>
<svg id="Layer_1" data-name="Layer 1" xmlns="http://www.w3.org/2000/svg" xmlns:xlink="http://www.w3.org/1999/xlink" viewBox="0 0 1092.98 348.61">
  <defs>
    <style>
      .cls-1 {
        fill: #daa50f;
      }

      .cls-2 {
        fill: #ce930e;
      }

      .cls-3 {
        fill: #ab610b;
      }

      .cls-4 {
        fill: #e6b60f;
      }

      .cls-5 {
        fill: #ecbf10;
      }

      .cls-6 {
        fill: #f6cd11;
      }

      .cls-7 {
        fill: #e9ba10;
      }

      .cls-8 {
        fill: #dca70f;
      }

      .cls-9 {
        fill: #954109;
      }

      .cls-10 {
        fill: #e7b710;
      }

      .cls-11 {
        fill: #cd910e;
      }

      .cls-12 {
        fill: #f5cc11;
      }

      .cls-13 {
        fill: #d7a00e;
      }

      .cls-14 {
        fill: #cb8f0d;
      }

      .cls-15 {
        fill: #e6b710;
      }

      .cls-16 {
        fill: #cf950e;
      }

      .cls-17 {
        fill: #bf7d0d;
      }

      .cls-18 {
        fill: #fdfefd;
      }

      .cls-19 {
        fill: #f7cf11;
      }

      .cls-20 {
        fill: #e5b40f;
      }

      .cls-21 {
        fill: #c98c0d;
      }

      .cls-22 {
        fill: #c1800d;
      }

      .cls-23 {
        fill: #d49c0e;
      }

      .cls-24 {
        fill: #f8d111;
      }

      .cls-25 {
        fill: #e0ad0f;
      }

      .cls-26 {
        fill: #e2b10f;
      }

      .cls-27 {
        fill: #d9a30f;
      }

      .cls-28 {
        fill: #a0500a;
      }

      .cls-29 {
        fill: #d8a20e;
      }

      .cls-30 {
        fill: #bc780c;
      }

      .cls-31 {
        fill: #f1c610;
      }

      .cls-32 {
        fill: #c6880d;
      }

      .cls-33 {
        fill: #e0ae0f;
      }

      .cls-34 {
        fill: #c4850d;
      }

      .cls-35 {
        fill: #903909;
      }

      .cls-36 {
        fill: #97430a;
      }

      .cls-37 {
        fill: #b46d0c;
      }

      .cls-38 {
        fill: #ac610b;
      }

      .cls-39 {
        fill: #cc910e;
      }

      .cls-40 {
        fill: #eabb10;
      }

      .cls-41 {
        fill: #e1af0f;
      }

      .cls-42 {
        fill: #deaa0f;
      }

      .cls-43 {
        fill: #bd7b0c;
      }

      .cls-44 {
        fill: #e8b910;
      }

      .cls-45 {
        fill: #b36c0c;
      }

      .cls-46 {
        fill: #edc010;
      }

      .cls-47 {
        fill: #a4570b;
      }

      .cls-48 {
        fill: #b26a0c;
      }

      .cls-49 {
        fill: #f0c510;
      }

      .cls-50 {
        fill: #f4ca11;
      }

      .cls-51 {
        fill: #cb8e0d;
      }

      .cls-52 {
        fill: #eec110;
      }

      .cls-53 {
        fill: #933e09;
      }

      .cls-54 {
        fill: #ae640b;
      }

      .cls-55 {
        fill: #d69e0e;
      }

      .cls-56 {
        fill: #f5cb11;
      }

      .cls-57 {
        fill: #ecbe10;
      }

      .cls-58 {
        fill: #ba760c;
      }

      .cls-59 {
        fill: #f7ce11;
      }

      .cls-60 {
        fill: #d9a40f;
      }

      .cls-61 {
        fill: #9d4c0a;
      }

      .cls-62 {
        fill: #a3550a;
      }

      .cls-63 {
        fill: #b8730c;
      }

      .cls-64 {
        fill: #d0960e;
      }

      .cls-65 {
        fill: #e4b20f;
      }

      .cls-66 {
        fill: #e7b810;
      }

      .cls-67 {
        fill: #f6ce11;
      }

      .cls-68 {
        fill: #f8cf11;
      }

      .cls-69 {
        fill: #a95d0b;
      }

      .cls-70 {
        fill: #b0670b;
      }

      .cls-71 {
        fill: #c88a0d;
      }

      .cls-72 {
        fill: #dda80f;
      }

      .cls-73 {
        fill: #e4b30f;
      }

      .cls-74 {
        fill: #f1c510;
      }

      .cls-75 {
        fill: #e2b00f;
      }

      .cls-76 {
        fill: #d2990e;
      }

      .cls-77 {
        fill: #98450a;
      }

      .cls-78 {
        fill: #eec210;
      }

      .cls-79 {
        fill: #ae650b;
      }

      .cls-80 {
        clip-path: url(#clippath);
      }

      .cls-81 {
        fill: #c5860d;
      }

      .cls-82 {
        fill: #a75a0b;
      }

      .cls-83 {
        fill: none;
      }

      .cls-84 {
        fill: #e5b50f;
      }

      .cls-85 {
        fill: #f2c710;
      }

      .cls-86 {
        fill: #f9d111;
      }

      .cls-87 {
        fill: #e3b10f;
      }

      .cls-88 {
        fill: #933d09;
      }

      .cls-89 {
        fill: #d69f0e;
      }

      .cls-90 {
        fill: #d39b0e;
      }

      .cls-91 {
        fill: #d2980e;
      }

      .cls-92 {
        fill: #f3c910;
      }

      .cls-93 {
        fill: #efc310;
      }

      .cls-94 {
        fill: #d59d0e;
      }

      .cls-95 {
        fill: #dfab0f;
      }

      .cls-96 {
        fill: #ebbd10;
      }

      .cls-97 {
        fill: #b1690b;
      }

      .cls-98 {
        fill: #c3830d;
      }

      .cls-99 {
        fill: #bf7e0d;
      }

      .cls-100 {
        fill: #bd7a0c;
      }

      .cls-101 {
        fill: #9a470a;
      }

      .cls-102 {
        fill: #dda90f;
      }

      .cls-103 {
        fill: #f2c810;
      }

      .cls-104 {
        fill: #efc410;
      }

      .cls-105 {
        fill: #e1ae0f;
      }

      .cls-106 {
        fill: #f4cb11;
      }

      .cls-107 {
        fill: #f0c410;
      }

      .cls-108 {
        fill: #a2530a;
      }

      .cls-109 {
        fill: #9b480a;
      }

      .cls-110 {
        fill: #bb770c;
      }

      .cls-111 {
        fill: #eabc10;
      }

      .cls-112 {
        fill: #dfac0f;
      }

      .cls-113 {
        fill: #ebbe10;
      }

      .cls-114 {
        fill: #fad311;
      }

      .cls-115 {
        fill: #c7890d;
      }

      .cls-116 {
        fill: #fad211;
      }

      .cls-117 {
        fill: #d1970e;
      }

      .cls-118 {
        fill: #a6590b;
      }

      .cls-119 {
        fill: #e3b20f;
      }

      .cls-120 {
        fill: #f9d211;
      }

      .cls-121 {
        fill: #b6700c;
      }

      .cls-122 {
        fill: #f8d011;
      }

      .cls-123 {
        fill: #d8a10e;
      }

      .cls-124 {
        fill: #ce940e;
      }

      .cls-125 {
        fill: #edc110;
      }

      .cls-126 {
        fill: #5c9ad7;
      }
    </style>
    <clipPath id="clippath">
      <path class="cls-83" d="m918.68,0c-96.27,0-174.31,78.04-174.31,174.31,0,10.9,1.01,21.56,2.92,31.91-.85-6.66-1.29-13.45-1.29-20.34,0-88.05,71.38-159.44,159.44-159.44s159.44,71.38,159.44,159.44-71.38,159.44-159.44,159.44c-14.31,0-28.18-1.9-41.37-5.43,17.18,5.66,35.53,8.74,54.6,8.74,96.27,0,174.31-78.04,174.31-174.31S1014.94,0,918.68,0Z"/>
    </clipPath>
  </defs>
  <g>
    <path class="cls-18" d="m70.53,193.17c0,7.27-.93,13.63-2.79,19.06-1.86,5.43-4.58,9.94-8.15,13.51-3.57,3.57-7.96,6.25-13.15,8.02-5.2,1.78-11.39,2.66-18.57,2.66H10.07c-1,0-1.94-.33-2.82-1.01-.89-.67-1.33-1.85-1.33-3.54v-74.94c0-1.69.44-2.87,1.33-3.54.89-.67,1.83-1.01,2.82-1.01h19.03c7.27,0,13.42.94,18.44,2.83,5.02,1.88,9.23,4.59,12.63,8.12,3.4,3.53,5.97,7.8,7.73,12.83,1.75,5.02,2.63,10.69,2.63,17.01Zm-11.75.45c0-4.55-.56-8.78-1.69-12.7-1.13-3.92-2.89-7.31-5.29-10.16s-5.44-5.09-9.12-6.69c-3.68-1.6-8.42-2.4-14.22-2.4h-11.36v65.4h11.49c5.37,0,9.89-.67,13.57-2.01,3.68-1.34,6.75-3.4,9.22-6.17,2.47-2.77,4.32-6.24,5.55-10.42,1.23-4.18,1.85-9.12,1.85-14.84Z"/>
    <path class="cls-18" d="m102.58,156.6c0,2.51-.48,4.22-1.43,5.13-.95.91-2.71,1.36-5.26,1.36s-4.23-.44-5.16-1.33c-.93-.89-1.4-2.56-1.4-5.03s.48-4.22,1.43-5.13c.95-.91,2.71-1.36,5.26-1.36s4.23.44,5.16,1.33c.93.89,1.4,2.56,1.4,5.03Zm-1.23,78.19c0,.35-.09.64-.26.88-.17.24-.45.44-.84.62s-.93.3-1.62.39c-.69.09-1.58.13-2.66.13s-1.91-.04-2.6-.13c-.69-.09-1.25-.22-1.66-.39-.41-.17-.69-.38-.84-.62-.15-.24-.23-.53-.23-.88v-58.45c0-.3.08-.58.23-.84.15-.26.43-.48.84-.65.41-.17.96-.3,1.66-.39.69-.09,1.56-.13,2.6-.13s1.97.04,2.66.13c.69.09,1.23.22,1.62.39.39.17.67.39.84.65.17.26.26.54.26.84v58.45Z"/>
    <path class="cls-18" d="m174.11,179.01c0,1.52-.21,2.61-.62,3.28-.41.67-.94,1.01-1.59,1.01h-8.38c1.51,1.56,2.58,3.28,3.18,5.16.61,1.88.91,3.84.91,5.88,0,3.38-.54,6.36-1.62,8.96-1.08,2.6-2.63,4.8-4.64,6.59-2.01,1.8-4.41,3.17-7.18,4.12-2.77.95-5.84,1.43-9.22,1.43-2.38,0-4.64-.31-6.79-.94-2.14-.63-3.8-1.42-4.97-2.37-.78.78-1.42,1.67-1.92,2.66-.5,1-.75,2.14-.75,3.44,0,1.52.7,2.77,2.11,3.77,1.41,1,3.28,1.54,5.62,1.62l15.26.65c2.9.09,5.56.49,7.99,1.2,2.42.71,4.52,1.73,6.3,3.05,1.77,1.32,3.16,2.94,4.16,4.87,1,1.93,1.49,4.17,1.49,6.72,0,2.68-.56,5.24-1.69,7.66-1.13,2.42-2.85,4.56-5.16,6.4-2.32,1.84-5.27,3.29-8.86,4.35-3.59,1.06-7.84,1.59-12.73,1.59s-8.73-.4-12.05-1.2c-3.31-.8-6.03-1.89-8.15-3.28-2.12-1.39-3.66-3.04-4.61-4.97-.95-1.93-1.43-4.02-1.43-6.27,0-1.43.17-2.81.52-4.16.35-1.34.88-2.62,1.59-3.83s1.6-2.37,2.66-3.47c1.06-1.1,2.28-2.2,3.67-3.28-2.12-1.08-3.69-2.45-4.71-4.09-1.02-1.65-1.53-3.42-1.53-5.33,0-2.64.54-5,1.62-7.08,1.08-2.08,2.42-3.94,4.03-5.58-1.34-1.6-2.4-3.41-3.18-5.42-.78-2.01-1.17-4.45-1.17-7.31,0-3.33.56-6.32,1.69-8.96,1.13-2.64,2.68-4.87,4.68-6.69,1.99-1.82,4.38-3.21,7.18-4.19,2.79-.97,5.83-1.46,9.12-1.46,1.77,0,3.43.1,4.97.29,1.54.2,2.98.47,4.32.81h17.66c.74,0,1.29.36,1.66,1.07.37.71.55,1.81.55,3.28Zm-11.36,61.69c0-2.51-1.03-4.45-3.08-5.81-2.06-1.36-4.84-2.09-8.34-2.18l-15.13-.52c-1.39,1.08-2.52,2.11-3.41,3.08-.89.97-1.59,1.9-2.11,2.79-.52.89-.88,1.76-1.07,2.63-.19.87-.29,1.75-.29,2.66,0,2.81,1.43,4.95,4.29,6.4,2.86,1.45,6.84,2.18,11.95,2.18,3.25,0,5.96-.31,8.15-.94,2.19-.63,3.95-1.46,5.29-2.5,1.34-1.04,2.31-2.23,2.89-3.57.58-1.34.88-2.75.88-4.22Zm-5.39-46.3c0-3.98-1.09-7.09-3.28-9.32-2.19-2.23-5.29-3.34-9.32-3.34-2.08,0-3.89.35-5.42,1.04-1.54.69-2.81,1.65-3.83,2.86-1.02,1.21-1.78,2.61-2.27,4.19-.5,1.58-.75,3.24-.75,4.97,0,3.85,1.09,6.88,3.28,9.09,2.19,2.21,5.25,3.31,9.19,3.31,2.12,0,3.96-.33,5.52-1.01,1.56-.67,2.85-1.6,3.86-2.79,1.02-1.19,1.77-2.57,2.27-4.12.5-1.56.75-3.18.75-4.87Z"/>
    <path class="cls-18" d="m203.95,156.6c0,2.51-.48,4.22-1.43,5.13-.95.91-2.71,1.36-5.26,1.36s-4.23-.44-5.16-1.33c-.93-.89-1.4-2.56-1.4-5.03s.48-4.22,1.43-5.13c.95-.91,2.71-1.36,5.26-1.36s4.23.44,5.16,1.33c.93.89,1.4,2.56,1.4,5.03Zm-1.23,78.19c0,.35-.09.64-.26.88-.17.24-.45.44-.84.62s-.93.3-1.62.39c-.69.09-1.58.13-2.66.13s-1.91-.04-2.6-.13c-.69-.09-1.25-.22-1.66-.39-.41-.17-.69-.38-.84-.62-.15-.24-.23-.53-.23-.88v-58.45c0-.3.08-.58.23-.84.15-.26.43-.48.84-.65.41-.17.96-.3,1.66-.39.69-.09,1.56-.13,2.6-.13s1.97.04,2.66.13c.69.09,1.23.22,1.62.39.39.17.67.39.84.65.17.26.26.54.26.84v58.45Z"/>
    <path class="cls-18" d="m257.04,230.51c0,1.26-.09,2.25-.26,2.99-.17.74-.43,1.28-.78,1.62-.35.35-.87.67-1.56.97-.69.3-1.48.55-2.37.75-.89.2-1.83.36-2.82.49-1,.13-1.99.19-2.99.19-3.03,0-5.63-.4-7.79-1.2-2.17-.8-3.94-2.01-5.33-3.64-1.39-1.62-2.39-3.68-3.02-6.17-.63-2.49-.94-5.42-.94-8.8v-34.16h-8.18c-.65,0-1.17-.35-1.56-1.04-.39-.69-.58-1.82-.58-3.38,0-.82.05-1.52.16-2.08.11-.56.25-1.03.42-1.4.17-.37.4-.63.68-.78.28-.15.59-.23.94-.23h8.12v-13.9c0-.3.08-.58.23-.84.15-.26.43-.49.84-.68.41-.2.96-.33,1.66-.42.69-.09,1.56-.13,2.6-.13s1.97.04,2.66.13c.69.09,1.23.23,1.62.42.39.19.67.42.84.68.17.26.26.54.26.84v13.9h15c.35,0,.65.08.91.23.26.15.49.41.68.78.19.37.33.83.42,1.4.09.56.13,1.26.13,2.08,0,1.56-.19,2.69-.58,3.38-.39.69-.91,1.04-1.56,1.04h-15v32.6c0,4.03.59,7.07,1.79,9.12,1.19,2.06,3.32,3.08,6.4,3.08,1,0,1.88-.1,2.66-.29.78-.2,1.47-.4,2.08-.62.61-.22,1.13-.42,1.56-.62.43-.19.82-.29,1.17-.29.22,0,.42.05.62.16.19.11.35.31.45.62.11.3.21.71.29,1.23.09.52.13,1.17.13,1.95Z"/>
    <path class="cls-18" d="m317.72,234.86c0,.52-.17.91-.52,1.17-.35.26-.82.45-1.43.58-.61.13-1.49.19-2.66.19s-2.02-.06-2.7-.19c-.67-.13-1.16-.32-1.46-.58-.3-.26-.45-.65-.45-1.17v-5.84c-2.55,2.73-5.4,4.85-8.54,6.36-3.14,1.52-6.46,2.27-9.97,2.27-3.07,0-5.86-.4-8.34-1.2-2.49-.8-4.61-1.96-6.36-3.47-1.75-1.52-3.12-3.38-4.09-5.58s-1.46-4.72-1.46-7.53c0-3.29.67-6.15,2.01-8.57,1.34-2.42,3.27-4.44,5.78-6.04,2.51-1.6,5.58-2.8,9.22-3.6,3.64-.8,7.73-1.2,12.27-1.2h8.05v-4.55c0-2.25-.24-4.24-.71-5.97-.48-1.73-1.25-3.17-2.31-4.32-1.06-1.15-2.44-2.01-4.12-2.6-1.69-.58-3.77-.88-6.23-.88-2.64,0-5.01.31-7.11.94-2.1.63-3.94,1.32-5.52,2.08-1.58.76-2.9,1.45-3.96,2.08-1.06.63-1.85.94-2.37.94-.35,0-.65-.09-.91-.26-.26-.17-.49-.43-.68-.78-.19-.35-.34-.79-.42-1.33-.09-.54-.13-1.14-.13-1.79,0-1.08.08-1.94.23-2.56.15-.63.52-1.22,1.1-1.79.58-.56,1.59-1.22,3.02-1.98,1.43-.76,3.07-1.45,4.94-2.08,1.86-.63,3.9-1.15,6.1-1.56,2.21-.41,4.44-.62,6.69-.62,4.2,0,7.77.48,10.72,1.43,2.94.95,5.33,2.35,7.14,4.19,1.82,1.84,3.14,4.12,3.96,6.85.82,2.73,1.23,5.91,1.23,9.55v39.42Zm-10.65-26.69h-9.16c-2.94,0-5.5.25-7.66.75-2.17.5-3.96,1.23-5.39,2.21-1.43.97-2.48,2.14-3.15,3.51-.67,1.36-1.01,2.93-1.01,4.71,0,3.03.96,5.44,2.89,7.24,1.93,1.8,4.62,2.7,8.09,2.7,2.81,0,5.42-.71,7.83-2.14s4.92-3.61,7.57-6.56v-12.4Z"/>
    <path class="cls-18" d="m352.24,234.79c0,.35-.09.64-.26.88-.17.24-.45.44-.84.62s-.93.3-1.62.39c-.69.09-1.58.13-2.66.13s-1.91-.04-2.6-.13c-.69-.09-1.25-.22-1.66-.39-.41-.17-.69-.38-.84-.62-.15-.24-.23-.53-.23-.88v-86.76c0-.35.08-.65.23-.91.15-.26.43-.48.84-.65.41-.17.96-.3,1.66-.39.69-.09,1.56-.13,2.6-.13s1.97.04,2.66.13c.69.09,1.23.22,1.62.39.39.17.67.39.84.65.17.26.26.56.26.91v86.76Z"/>
    <path class="cls-126" d="m476.21,193.17c0,7.27-.93,13.63-2.79,19.06-1.86,5.43-4.58,9.94-8.15,13.51-3.57,3.57-7.96,6.25-13.15,8.02-5.2,1.78-11.39,2.66-18.57,2.66h-17.79c-1,0-1.94-.33-2.82-1.01-.89-.67-1.33-1.85-1.33-3.54v-74.94c0-1.69.44-2.87,1.33-3.54.89-.67,1.83-1.01,2.82-1.01h19.03c7.27,0,13.42.94,18.44,2.83,5.02,1.88,9.23,4.59,12.63,8.12,3.4,3.53,5.97,7.8,7.73,12.83,1.75,5.02,2.63,10.69,2.63,17.01Zm-11.75.45c0-4.55-.56-8.78-1.69-12.7-1.13-3.92-2.89-7.31-5.29-10.16s-5.44-5.09-9.12-6.69c-3.68-1.6-8.42-2.4-14.22-2.4h-11.36v65.4h11.49c5.37,0,9.89-.67,13.57-2.01,3.68-1.34,6.75-3.4,9.22-6.17,2.47-2.77,4.32-6.24,5.55-10.42,1.23-4.18,1.85-9.12,1.85-14.84Z"/>
    <path class="cls-126" d="m540.34,234.86c0,.52-.17.91-.52,1.17-.35.26-.82.45-1.43.58-.61.13-1.49.19-2.66.19s-2.02-.06-2.7-.19c-.67-.13-1.16-.32-1.46-.58-.3-.26-.45-.65-.45-1.17v-5.84c-2.55,2.73-5.4,4.85-8.54,6.36-3.14,1.52-6.46,2.27-9.97,2.27-3.07,0-5.86-.4-8.34-1.2-2.49-.8-4.61-1.96-6.36-3.47-1.75-1.52-3.12-3.38-4.09-5.58s-1.46-4.72-1.46-7.53c0-3.29.67-6.15,2.01-8.57,1.34-2.42,3.27-4.44,5.78-6.04,2.51-1.6,5.58-2.8,9.22-3.6,3.64-.8,7.73-1.2,12.27-1.2h8.05v-4.55c0-2.25-.24-4.24-.71-5.97-.48-1.73-1.25-3.17-2.31-4.32-1.06-1.15-2.44-2.01-4.12-2.6-1.69-.58-3.77-.88-6.23-.88-2.64,0-5.01.31-7.11.94-2.1.63-3.94,1.32-5.52,2.08-1.58.76-2.9,1.45-3.96,2.08-1.06.63-1.85.94-2.37.94-.35,0-.65-.09-.91-.26-.26-.17-.49-.43-.68-.78-.19-.35-.34-.79-.42-1.33-.09-.54-.13-1.14-.13-1.79,0-1.08.08-1.94.23-2.56.15-.63.52-1.22,1.1-1.79.58-.56,1.59-1.22,3.02-1.98,1.43-.76,3.07-1.45,4.94-2.08,1.86-.63,3.9-1.15,6.1-1.56,2.21-.41,4.44-.62,6.69-.62,4.2,0,7.77.48,10.72,1.43,2.94.95,5.33,2.35,7.14,4.19,1.82,1.84,3.14,4.12,3.96,6.85.82,2.73,1.23,5.91,1.23,9.55v39.42Zm-10.65-26.69h-9.16c-2.94,0-5.5.25-7.66.75-2.17.5-3.96,1.23-5.39,2.21-1.43.97-2.48,2.14-3.15,3.51-.67,1.36-1.01,2.93-1.01,4.71,0,3.03.96,5.44,2.89,7.24,1.93,1.8,4.62,2.7,8.09,2.7,2.81,0,5.42-.71,7.83-2.14s4.92-3.61,7.57-6.56v-12.4Z"/>
    <path class="cls-126" d="m609.86,176.22c0,.17-.01.36-.03.55-.02.19-.05.4-.1.62-.04.22-.1.45-.16.71s-.14.54-.23.84l-19.94,55.52c-.17.48-.4.87-.68,1.17-.28.3-.7.54-1.27.71-.56.17-1.28.29-2.14.36-.87.07-1.95.1-3.25.1s-2.38-.04-3.25-.13c-.87-.09-1.57-.22-2.11-.39-.54-.17-.96-.41-1.27-.71-.3-.3-.54-.67-.71-1.1l-19.87-55.52c-.17-.52-.31-.97-.42-1.36-.11-.39-.17-.68-.19-.88-.02-.19-.03-.36-.03-.49,0-.35.09-.65.26-.91.17-.26.46-.46.88-.62.41-.15.95-.25,1.62-.29.67-.04,1.5-.06,2.5-.06,1.26,0,2.26.03,3.02.1.76.06,1.34.18,1.75.36.41.17.71.39.91.65s.38.58.55.97l16.5,48.19.26.78.19-.78,16.3-48.19c.09-.39.24-.71.45-.97.22-.26.53-.48.94-.65.41-.17.97-.29,1.69-.36.71-.07,1.66-.1,2.82-.1,1,0,1.82.02,2.47.06.65.04,1.16.15,1.53.32.37.17.63.38.78.62.15.24.23.53.23.88Z"/>
    <path class="cls-126" d="m679.25,204.92c0,4.76-.63,9.15-1.88,13.15-1.26,4-3.13,7.46-5.62,10.36-2.49,2.9-5.61,5.16-9.35,6.79-3.75,1.62-8.09,2.44-13.02,2.44s-8.99-.71-12.57-2.14-6.55-3.51-8.93-6.23c-2.38-2.73-4.16-6.04-5.33-9.94s-1.75-8.31-1.75-13.25.62-9.15,1.85-13.15c1.23-4,3.09-7.46,5.58-10.36,2.49-2.9,5.6-5.15,9.32-6.75,3.72-1.6,8.07-2.4,13.05-2.4s8.99.71,12.57,2.14,6.55,3.51,8.93,6.23c2.38,2.73,4.17,6.04,5.36,9.94,1.19,3.9,1.79,8.29,1.79,13.18Zm-11.1.71c0-3.16-.3-6.15-.88-8.96-.59-2.81-1.56-5.28-2.92-7.4-1.35-2.12-3.19-3.8-5.5-5.03-2.32-1.23-5.2-1.85-8.65-1.85-3.19,0-5.93.56-8.22,1.69-2.29,1.13-4.18,2.72-5.67,4.77-1.49,2.06-2.59,4.49-3.31,7.31-.72,2.81-1.08,5.89-1.08,9.22s.29,6.21.88,9.03c.59,2.81,1.57,5.27,2.95,7.37,1.38,2.1,3.22,3.77,5.54,5,2.32,1.23,5.2,1.85,8.65,1.85,3.15,0,5.88-.56,8.19-1.69,2.32-1.13,4.22-2.71,5.7-4.74,1.49-2.03,2.58-4.46,3.28-7.27.7-2.81,1.05-5.91,1.05-9.29Z"/>
    <path class="cls-126" d="m735.84,218.88c0,2.99-.55,5.65-1.66,7.99s-2.67,4.31-4.71,5.91c-2.04,1.6-4.46,2.81-7.27,3.64-2.81.82-5.91,1.23-9.29,1.23-2.08,0-4.06-.16-5.94-.49-1.88-.33-3.57-.74-5.07-1.23-1.49-.5-2.76-1.02-3.8-1.56-1.04-.54-1.8-1.03-2.27-1.46-.48-.43-.82-1.04-1.04-1.82-.22-.78-.32-1.84-.32-3.18,0-.82.04-1.52.13-2.08.09-.56.19-1.02.32-1.36.13-.35.31-.59.55-.75.24-.15.51-.23.81-.23.48,0,1.18.29,2.11.88.93.58,2.08,1.22,3.44,1.92,1.36.69,2.98,1.33,4.84,1.92,1.86.58,4,.88,6.43.88,1.82,0,3.46-.19,4.94-.58,1.47-.39,2.75-.96,3.83-1.72,1.08-.76,1.92-1.72,2.5-2.89s.88-2.55.88-4.16-.42-3.03-1.27-4.16c-.84-1.13-1.96-2.12-3.34-2.99-1.39-.87-2.94-1.63-4.68-2.31-1.73-.67-3.52-1.37-5.36-2.11-1.84-.74-3.64-1.57-5.39-2.5-1.75-.93-3.32-2.07-4.71-3.41-1.39-1.34-2.5-2.94-3.34-4.81-.84-1.86-1.27-4.09-1.27-6.69,0-2.29.44-4.49,1.33-6.59.89-2.1,2.22-3.94,3.99-5.52,1.77-1.58,3.99-2.85,6.66-3.8,2.66-.95,5.77-1.43,9.32-1.43,1.56,0,3.12.13,4.68.39s2.97.58,4.22.97c1.26.39,2.33.81,3.21,1.27.89.46,1.56.86,2.01,1.2.45.35.76.65.91.91.15.26.26.55.32.88.06.33.13.73.19,1.2.06.48.1,1.06.1,1.75,0,.74-.03,1.38-.1,1.92-.06.54-.17.98-.32,1.33-.15.35-.34.6-.55.75-.22.15-.45.23-.71.23-.39,0-.95-.24-1.69-.71-.74-.48-1.69-.98-2.86-1.53-1.17-.54-2.54-1.05-4.12-1.53-1.58-.48-3.39-.71-5.42-.71-1.82,0-3.42.21-4.81.62-1.39.41-2.52,1-3.41,1.75-.89.76-1.56,1.66-2.01,2.7s-.68,2.17-.68,3.38c0,1.69.43,3.11,1.3,4.25.87,1.15,1.99,2.15,3.38,3.02,1.39.87,2.97,1.65,4.74,2.34,1.77.69,3.58,1.41,5.42,2.14,1.84.74,3.66,1.56,5.46,2.47,1.8.91,3.39,2.01,4.77,3.31,1.39,1.3,2.5,2.86,3.34,4.68s1.27,3.98,1.27,6.49Z"/>
    <path class="cls-18" d="m835.85,212.84c0,3.94-.73,7.45-2.18,10.52-1.45,3.07-3.46,5.68-6.04,7.83-2.58,2.14-5.61,3.76-9.09,4.84-3.49,1.08-7.24,1.62-11.27,1.62-2.81,0-5.42-.24-7.83-.71-2.4-.48-4.55-1.06-6.43-1.75-1.88-.69-3.46-1.41-4.74-2.14-1.28-.74-2.17-1.36-2.66-1.88-.5-.52-.87-1.18-1.1-1.98-.24-.8-.36-1.87-.36-3.21,0-.95.04-1.74.13-2.37.09-.63.22-1.14.39-1.53.17-.39.39-.66.65-.81.26-.15.56-.23.91-.23.61,0,1.46.37,2.57,1.1,1.1.74,2.52,1.54,4.25,2.4,1.73.87,3.82,1.68,6.27,2.44,2.45.76,5.27,1.14,8.47,1.14,2.42,0,4.64-.32,6.66-.97s3.74-1.57,5.2-2.76c1.45-1.19,2.57-2.65,3.34-4.38.78-1.73,1.17-3.7,1.17-5.91,0-2.38-.54-4.42-1.62-6.1-1.08-1.69-2.51-3.17-4.29-4.45-1.78-1.28-3.8-2.45-6.07-3.51-2.27-1.06-4.6-2.14-6.98-3.25-2.38-1.1-4.7-2.33-6.95-3.67-2.25-1.34-4.26-2.92-6.04-4.74-1.78-1.82-3.21-3.95-4.32-6.4-1.1-2.45-1.66-5.38-1.66-8.8s.64-6.63,1.92-9.38c1.28-2.75,3.05-5.05,5.33-6.92,2.27-1.86,4.98-3.28,8.12-4.25,3.14-.97,6.53-1.46,10.16-1.46,1.86,0,3.73.16,5.62.49,1.88.33,3.66.76,5.33,1.3,1.67.54,3.15,1.15,4.45,1.82,1.3.67,2.15,1.21,2.57,1.62.41.41.68.74.81.97.13.24.24.54.32.91.09.37.15.81.19,1.33.04.52.06,1.19.06,2.01,0,.78-.03,1.47-.1,2.08-.06.61-.16,1.12-.29,1.53-.13.41-.31.71-.55.91-.24.19-.51.29-.81.29-.48,0-1.22-.3-2.24-.91-1.02-.61-2.26-1.29-3.73-2.05-1.47-.76-3.21-1.45-5.23-2.08-2.01-.63-4.28-.94-6.79-.94-2.34,0-4.37.31-6.1.94-1.73.63-3.16,1.46-4.29,2.5-1.13,1.04-1.97,2.27-2.53,3.7-.56,1.43-.84,2.94-.84,4.55,0,2.34.54,4.35,1.62,6.04,1.08,1.69,2.52,3.18,4.32,4.48,1.8,1.3,3.84,2.49,6.14,3.57,2.29,1.08,4.63,2.18,7.01,3.28,2.38,1.1,4.72,2.32,7.01,3.64,2.29,1.32,4.34,2.88,6.14,4.68,1.8,1.8,3.25,3.92,4.35,6.36,1.1,2.45,1.66,5.34,1.66,8.67Z"/>
    <path class="cls-18" d="m907.58,176.99c0,4.2-.69,7.99-2.08,11.36-1.39,3.38-3.37,6.26-5.94,8.64-2.58,2.38-5.74,4.22-9.48,5.52-3.75,1.3-8.22,1.95-13.41,1.95h-9.55v30.26c0,.35-.1.65-.29.91s-.5.47-.91.62c-.41.15-.97.28-1.69.39-.71.11-1.61.16-2.7.16s-1.98-.05-2.7-.16c-.71-.11-1.29-.24-1.72-.39-.43-.15-.74-.36-.91-.62-.17-.26-.26-.56-.26-.91v-77.54c0-1.73.45-2.96,1.36-3.7.91-.74,1.93-1.1,3.05-1.1h17.99c1.82,0,3.56.08,5.23.23,1.67.15,3.64.48,5.91.97,2.27.5,4.59,1.43,6.95,2.79,2.36,1.36,4.36,3.04,6.01,5.03,1.64,1.99,2.91,4.3,3.8,6.92.89,2.62,1.33,5.51,1.33,8.67Zm-11.75.91c0-3.42-.64-6.28-1.92-8.57-1.28-2.29-2.86-4-4.74-5.13-1.88-1.13-3.83-1.84-5.84-2.14-2.01-.3-3.97-.45-5.88-.45h-10.33v33.7h10.07c3.38,0,6.18-.43,8.41-1.3,2.23-.87,4.1-2.07,5.62-3.6,1.51-1.54,2.66-3.38,3.44-5.52.78-2.14,1.17-4.47,1.17-6.98Z"/>
  </g>
  <g>
    <path class="cls-114" d="m595.17,268.4c0,1.1-.17,2.07-.51,2.92-.34.85-.84,1.56-1.5,2.14-.66.58-1.46,1.02-2.41,1.32s-2.08.45-3.37.45h-1.63v6.25c0,.1-.03.19-.1.27-.07.08-.17.15-.33.2-.15.05-.35.09-.61.12-.25.03-.58.05-.97.05s-.7-.02-.96-.05-.46-.07-.61-.12c-.15-.05-.26-.12-.32-.2-.06-.08-.09-.17-.09-.27v-17.62c0-.47.12-.83.37-1.07.25-.24.57-.36.98-.36h4.62c.46,0,.91.02,1.32.05.42.04.92.11,1.51.23.58.12,1.18.33,1.78.64.6.31,1.11.71,1.54,1.19.42.48.75,1.04.97,1.68.22.64.33,1.36.33,2.16Zm-4.16.29c0-.69-.12-1.25-.36-1.7-.24-.44-.54-.77-.89-.98-.35-.21-.72-.35-1.11-.4-.39-.06-.79-.08-1.2-.08h-1.7v6.65h1.79c.64,0,1.17-.09,1.6-.26.43-.17.78-.41,1.05-.72.27-.31.48-.68.62-1.1.14-.43.21-.9.21-1.4Z"/>
    <path class="cls-114" d="m612.14,274.63c0,1.15-.15,2.2-.45,3.15-.3.95-.76,1.77-1.38,2.45-.62.69-1.39,1.22-2.32,1.59-.93.37-2.01.56-3.25.56s-2.25-.17-3.13-.5c-.89-.33-1.62-.82-2.21-1.45-.59-.64-1.02-1.42-1.3-2.35-.28-.93-.42-1.99-.42-3.18s.15-2.2.46-3.16c.31-.95.77-1.77,1.39-2.45.62-.68,1.38-1.21,2.31-1.58.92-.37,2.01-.56,3.25-.56s2.26.16,3.15.49c.89.33,1.62.81,2.2,1.45s1.01,1.42,1.29,2.35c.28.93.42,1.99.42,3.19Zm-3.92.15c0-.67-.05-1.28-.16-1.84-.11-.56-.29-1.05-.54-1.46-.25-.41-.59-.74-1.01-.97-.42-.23-.95-.35-1.58-.35-.57,0-1.06.1-1.48.31-.42.21-.77.51-1.04.91-.27.4-.48.88-.61,1.44-.14.56-.2,1.2-.2,1.92,0,.67.06,1.28.17,1.84.11.56.29,1.05.54,1.46.25.41.58.73,1.01.96.42.23.95.34,1.57.34.58,0,1.07-.1,1.5-.31.42-.21.77-.51,1.04-.9s.47-.87.61-1.43c.13-.56.2-1.2.2-1.91Z"/>
    <path class="cls-114" d="m636.72,267.99c0,.11-.02.25-.05.41-.03.16-.09.39-.17.7l-3.6,12.22c-.05.17-.12.31-.2.42-.08.11-.2.19-.37.25s-.4.1-.71.12c-.31.02-.71.03-1.2.03s-.9-.01-1.21-.04c-.31-.02-.56-.07-.73-.13-.18-.06-.31-.14-.39-.25-.08-.11-.14-.24-.18-.4l-2.27-8.2-.03-.14-.03.14-2.09,8.2c-.04.17-.1.31-.17.42-.08.11-.2.19-.39.25s-.43.1-.74.12c-.31.02-.72.03-1.21.03s-.91-.01-1.22-.04c-.31-.02-.55-.07-.73-.13-.18-.06-.31-.14-.39-.25-.08-.11-.14-.24-.18-.4l-3.57-12.22c-.09-.29-.15-.52-.17-.69-.03-.17-.04-.3-.04-.42,0-.1.03-.19.08-.26.06-.08.16-.14.3-.18.15-.05.34-.08.59-.1.25-.02.56-.03.93-.03.4,0,.73.01.98.03.25.02.45.06.59.11.14.05.24.12.3.2.06.09.1.19.13.31l2.68,9.91.03.18.03-.18,2.51-9.91c.03-.12.08-.22.14-.31.07-.09.16-.15.29-.2.13-.05.32-.09.55-.11.24-.02.54-.03.92-.03s.68.01.91.04c.23.02.42.06.55.11.14.05.23.11.29.18.06.08.1.16.13.27l2.69,9.99.05.17.03-.18,2.57-9.91c.02-.12.06-.22.12-.31.06-.09.16-.15.3-.2.14-.05.33-.09.58-.11.24-.02.55-.03.92-.03s.68.01.92.03c.24.02.42.05.56.1.14.04.23.11.28.18.05.08.08.16.08.26Z"/>
    <path class="cls-114" d="m652.34,274.37c0,.46-.1.81-.31,1.03-.21.22-.49.33-.86.33h-8.22c0,.58.07,1.1.2,1.57.14.47.35.87.65,1.2.3.33.68.58,1.15.75.47.17,1.03.26,1.69.26s1.25-.05,1.76-.14c.5-.1.94-.2,1.31-.32.37-.12.67-.22.92-.32.24-.1.44-.14.59-.14.09,0,.17.02.23.05.06.04.11.1.15.19s.07.22.08.39c.02.17.02.38.02.63,0,.22,0,.41-.02.57-.01.16-.03.29-.05.4-.02.11-.05.2-.09.28-.04.08-.09.15-.16.22-.07.07-.25.17-.54.29s-.67.24-1.12.36c-.45.12-.97.22-1.56.3-.59.09-1.21.13-1.88.13-1.2,0-2.25-.15-3.16-.45-.9-.3-1.66-.76-2.26-1.38-.61-.62-1.06-1.39-1.35-2.33-.3-.94-.45-2.04-.45-3.3s.16-2.28.47-3.25c.31-.96.77-1.78,1.36-2.45.6-.67,1.32-1.18,2.17-1.54.85-.35,1.81-.53,2.88-.53,1.13,0,2.1.17,2.9.5s1.46.79,1.98,1.38c.51.59.89,1.29,1.14,2.1.24.81.36,1.69.36,2.63v.61Zm-3.69-1.09c.03-1.07-.18-1.91-.64-2.52-.46-.61-1.17-.92-2.13-.92-.48,0-.91.09-1.26.27-.36.18-.66.43-.89.73-.24.31-.42.67-.54,1.09-.13.42-.2.87-.22,1.34h5.69Z"/>
    <path class="cls-114" d="m665.11,269.27c0,.36-.01.66-.03.89-.02.23-.05.41-.09.54-.04.13-.09.22-.16.27-.07.05-.15.08-.25.08-.08,0-.17-.02-.27-.05-.1-.04-.21-.07-.34-.11-.13-.04-.27-.08-.42-.11-.15-.04-.32-.05-.5-.05-.21,0-.42.04-.64.13-.21.09-.43.22-.66.4s-.46.42-.71.73c-.25.3-.51.68-.79,1.12v8.42c0,.1-.03.19-.09.26-.06.08-.16.14-.31.19-.15.05-.34.09-.58.11-.24.03-.55.04-.92.04s-.68-.01-.92-.04c-.24-.02-.44-.06-.58-.11-.15-.05-.25-.11-.31-.19-.06-.08-.09-.16-.09-.26v-13.5c0-.1.03-.19.08-.26.05-.08.14-.14.27-.19.13-.05.3-.09.51-.11.21-.03.47-.04.78-.04s.59.01.8.04c.21.02.38.06.49.11.12.05.2.11.25.19.05.08.08.16.08.26v1.68c.35-.5.69-.92,1-1.25.31-.33.61-.59.89-.78.28-.19.56-.33.85-.4.28-.08.56-.11.85-.11.13,0,.27,0,.42.02.15.01.31.04.47.08.16.04.3.08.42.12.12.05.21.09.27.14.06.05.1.11.12.17.02.06.05.14.07.25.02.11.04.26.05.48s.02.5.02.86Z"/>
    <path class="cls-114" d="m690.8,276.16c0,.7-.1,1.33-.29,1.89-.19.57-.46,1.06-.79,1.5-.34.43-.74.81-1.21,1.12-.47.31-.99.57-1.55.77-.57.2-1.17.35-1.81.45-.64.1-1.35.14-2.14.14h-5.21c-.33,0-.61-.1-.84-.29-.23-.2-.34-.52-.34-.96v-17.07c0-.44.11-.76.34-.96.23-.2.51-.29.84-.29h4.92c1.2,0,2.22.1,3.05.3.83.2,1.53.51,2.1.92.57.41,1.01.93,1.31,1.55.3.63.45,1.36.45,2.21,0,.47-.06.92-.18,1.34-.12.42-.3.8-.53,1.14-.23.34-.52.65-.86.91-.34.26-.72.47-1.16.64.55.1,1.07.28,1.54.53.47.25.88.58,1.23.98.35.4.62.87.83,1.4.2.54.3,1.14.3,1.8Zm-5.15-8.25c0-.39-.06-.75-.18-1.06-.12-.31-.3-.57-.54-.78-.24-.21-.55-.37-.92-.48-.37-.11-.86-.17-1.48-.17h-2.01v5.09h2.23c.58,0,1.03-.07,1.38-.2.34-.14.63-.32.85-.56.23-.24.4-.51.51-.83.11-.32.17-.65.17-1.01Zm1.01,8.39c0-.45-.08-.86-.23-1.22-.15-.36-.37-.66-.67-.9-.29-.24-.67-.43-1.12-.56-.45-.13-1.04-.2-1.77-.2h-2.36v5.57h2.88c.55,0,1.02-.06,1.4-.17.38-.12.71-.29.98-.51.28-.23.49-.51.65-.85.16-.34.23-.72.23-1.16Z"/>
    <path class="cls-114" d="m702.25,282.03l-1.63,4.78c-.09.25-.34.43-.74.54-.4.11-.99.17-1.77.17-.4,0-.73-.02-.97-.05-.24-.04-.42-.09-.54-.17-.12-.08-.19-.18-.2-.3-.01-.12.02-.27.09-.44l1.8-4.53c-.13-.06-.25-.15-.36-.28-.11-.13-.18-.26-.23-.4l-4.65-12.41c-.13-.35-.2-.62-.2-.81s.06-.33.18-.44c.12-.11.33-.18.61-.22.29-.04.67-.06,1.14-.06.43,0,.78,0,1.03.02.25.02.45.05.59.11.14.06.25.15.32.28.07.13.14.31.21.54l3.18,9.04h.05l2.91-9.22c.06-.26.14-.44.23-.52.1-.09.25-.15.48-.19.22-.04.61-.06,1.17-.06.43,0,.79.02,1.08.06.29.04.5.12.64.23.14.11.2.26.2.45s-.04.41-.12.66l-4.5,13.23Z"/>
    <path class="cls-114" d="m731.81,279.07c0,.25,0,.47-.02.64-.02.18-.04.33-.07.45-.03.13-.07.23-.12.33-.05.09-.13.19-.24.31-.11.12-.33.26-.64.45s-.71.36-1.17.52c-.46.17-.98.3-1.57.42-.59.11-1.23.17-1.91.17-1.34,0-2.55-.21-3.63-.62-1.08-.41-2-1.03-2.75-1.85-.76-.82-1.34-1.85-1.74-3.08-.4-1.23-.61-2.66-.61-4.3s.22-3.14.67-4.44c.44-1.29,1.06-2.38,1.86-3.25.8-.88,1.75-1.54,2.87-2s2.34-.68,3.69-.68c.54,0,1.07.05,1.57.14.5.09.97.21,1.4.36.43.15.81.32,1.16.51.34.19.58.36.72.49.14.14.23.25.28.34.05.09.09.21.12.35.03.14.05.31.07.5.02.19.02.43.02.71,0,.3-.01.56-.03.77-.02.21-.06.38-.11.51-.05.13-.11.23-.18.29-.07.06-.15.09-.24.09-.15,0-.34-.09-.58-.27-.23-.18-.53-.37-.9-.59-.37-.22-.81-.41-1.32-.59-.51-.18-1.12-.26-1.82-.26-.78,0-1.47.16-2.08.48-.61.32-1.13.77-1.56,1.36-.43.59-.75,1.3-.98,2.14-.22.84-.33,1.78-.33,2.83,0,1.15.12,2.15.36,2.99.24.84.58,1.54,1.01,2.08s.97.95,1.59,1.22c.62.27,1.32.4,2.1.4.71,0,1.32-.08,1.83-.25.51-.17.96-.35,1.32-.55.37-.2.67-.38.91-.54.24-.16.42-.24.55-.24.1,0,.18.02.24.06.06.04.11.12.15.24.04.12.07.29.09.51.02.22.03.51.03.87Z"/>
    <path class="cls-114" d="m748.3,281.52c0,.1-.03.19-.09.26-.06.08-.16.14-.3.19-.14.05-.34.09-.58.11-.25.03-.55.04-.92.04s-.68-.01-.93-.04c-.25-.02-.44-.06-.58-.11-.14-.05-.24-.11-.3-.19-.06-.08-.09-.16-.09-.26v-7.7c0-.66-.05-1.17-.14-1.54-.1-.37-.23-.69-.42-.96-.18-.27-.42-.47-.7-.62-.29-.15-.62-.22-1.01-.22-.48,0-.97.18-1.47.53-.49.35-1.01.87-1.54,1.54v8.98c0,.1-.03.19-.09.26-.06.08-.16.14-.31.19-.15.05-.34.09-.58.11-.24.03-.55.04-.92.04s-.68-.01-.92-.04c-.24-.02-.44-.06-.58-.11-.15-.05-.25-.11-.31-.19-.06-.08-.09-.16-.09-.26v-19.9c0-.1.03-.19.09-.27.06-.08.16-.15.31-.2.15-.06.34-.1.58-.13s.55-.05.92-.05.68.02.92.05.44.07.58.13c.15.06.25.12.31.2.06.08.09.17.09.27v7.46c.66-.65,1.32-1.13,2.01-1.45.68-.32,1.39-.48,2.13-.48.92,0,1.69.15,2.32.45.63.3,1.14.72,1.53,1.24.39.52.67,1.14.84,1.84.17.7.26,1.55.26,2.55v8.28Z"/>
    <path class="cls-114" d="m764.51,281.56c0,.14-.05.25-.15.33-.1.08-.26.14-.48.17-.22.04-.54.05-.96.05-.45,0-.78-.02-.99-.05-.21-.04-.35-.09-.44-.17-.09-.08-.13-.19-.13-.33v-1.07c-.56.6-1.19,1.06-1.9,1.39s-1.5.5-2.37.5c-.72,0-1.38-.09-1.98-.28-.6-.19-1.12-.46-1.56-.83-.44-.37-.78-.82-1.02-1.37s-.36-1.18-.36-1.91c0-.79.15-1.47.46-2.05.31-.58.77-1.06,1.38-1.44.61-.38,1.37-.66,2.28-.84s1.96-.27,3.16-.27h1.32v-.82c0-.42-.04-.79-.13-1.11-.09-.32-.23-.58-.42-.79s-.46-.37-.79-.47c-.33-.1-.73-.15-1.22-.15-.64,0-1.2.07-1.7.21-.5.14-.94.3-1.32.47-.38.17-.7.33-.96.47-.26.14-.47.21-.63.21-.11,0-.21-.04-.29-.11-.09-.07-.16-.17-.21-.3-.06-.13-.1-.29-.13-.48-.03-.19-.05-.4-.05-.64,0-.31.03-.56.08-.74s.15-.35.29-.49c.14-.15.39-.31.74-.48.35-.18.77-.34,1.24-.49s.99-.27,1.55-.37c.56-.1,1.14-.14,1.73-.14,1.06,0,1.97.1,2.72.31.75.21,1.37.52,1.85.95.48.43.84.98,1.06,1.66.22.68.33,1.48.33,2.41v9.08Zm-3.74-5.78h-1.45c-.62,0-1.14.05-1.57.14s-.79.23-1.06.41-.47.4-.6.66c-.13.26-.19.55-.19.89,0,.57.18,1.01.54,1.33.36.32.85.48,1.49.48.53,0,1.03-.14,1.48-.41.45-.27.91-.67,1.37-1.2v-2.3Z"/>
    <path class="cls-114" d="m773.37,263.45c0,.77-.16,1.3-.47,1.59-.31.29-.89.44-1.74.44s-1.44-.14-1.73-.42c-.3-.28-.45-.79-.45-1.53s.15-1.3.46-1.6c.31-.3.89-.45,1.75-.45s1.42.14,1.73.43c.3.29.45.8.45,1.54Zm-.29,18.07c0,.1-.03.19-.09.26-.06.08-.16.14-.31.19-.15.05-.34.09-.58.11-.24.03-.55.04-.92.04s-.68-.01-.92-.04c-.24-.02-.44-.06-.58-.11-.15-.05-.25-.11-.31-.19-.06-.08-.09-.16-.09-.26v-13.47c0-.1.03-.19.09-.26.06-.08.16-.14.31-.2.15-.06.34-.1.58-.13s.55-.05.92-.05.68.02.92.05.44.07.58.13c.15.06.25.12.31.2.06.08.09.16.09.26v13.47Z"/>
    <path class="cls-114" d="m790.74,281.52c0,.1-.03.19-.09.26-.06.08-.16.14-.3.19-.14.05-.34.09-.58.11-.25.03-.55.04-.92.04s-.68-.01-.93-.04c-.25-.02-.44-.06-.58-.11-.14-.05-.24-.11-.3-.19-.06-.08-.09-.16-.09-.26v-7.7c0-.66-.05-1.17-.14-1.54-.1-.37-.23-.69-.42-.96-.18-.27-.42-.47-.7-.62-.29-.15-.62-.22-1.01-.22-.48,0-.97.18-1.47.53-.49.35-1.01.87-1.54,1.54v8.98c0,.1-.03.19-.09.26-.06.08-.16.14-.31.19-.15.05-.34.09-.58.11-.24.03-.55.04-.92.04s-.68-.01-.92-.04c-.24-.02-.44-.06-.58-.11-.15-.05-.25-.11-.31-.19-.06-.08-.09-.16-.09-.26v-13.5c0-.1.03-.19.08-.26.05-.08.14-.14.27-.19.13-.05.3-.09.51-.11.21-.03.47-.04.78-.04s.59.01.8.04c.21.02.38.06.49.11.12.05.2.11.25.19.05.08.08.16.08.26v1.56c.75-.81,1.51-1.41,2.28-1.82.77-.4,1.58-.61,2.41-.61.92,0,1.69.15,2.32.45.63.3,1.14.71,1.53,1.23.39.52.67,1.13.84,1.82s.26,1.53.26,2.51v8.34Z"/>
    <path class="cls-114" d="m809.85,276.16c0,.7-.1,1.33-.29,1.89-.19.57-.46,1.06-.79,1.5-.34.43-.74.81-1.21,1.12-.47.31-.99.57-1.55.77-.57.2-1.17.35-1.81.45-.64.1-1.35.14-2.14.14h-5.21c-.33,0-.61-.1-.84-.29-.23-.2-.34-.52-.34-.96v-17.07c0-.44.11-.76.34-.96.23-.2.51-.29.84-.29h4.92c1.2,0,2.22.1,3.05.3.83.2,1.53.51,2.1.92.57.41,1.01.93,1.31,1.55.3.63.45,1.36.45,2.21,0,.47-.06.92-.18,1.34-.12.42-.3.8-.53,1.14-.23.34-.52.65-.86.91-.34.26-.72.47-1.16.64.55.1,1.07.28,1.54.53.47.25.88.58,1.23.98.35.4.62.87.83,1.4.2.54.3,1.14.3,1.8Zm-5.15-8.25c0-.39-.06-.75-.18-1.06-.12-.31-.3-.57-.54-.78-.24-.21-.55-.37-.92-.48-.37-.11-.86-.17-1.48-.17h-2.01v5.09h2.23c.58,0,1.03-.07,1.38-.2.34-.14.63-.32.85-.56.23-.24.4-.51.51-.83.11-.32.17-.65.17-1.01Zm1.01,8.39c0-.45-.08-.86-.23-1.22-.15-.36-.37-.66-.67-.9-.29-.24-.67-.43-1.12-.56-.45-.13-1.04-.2-1.77-.2h-2.36v5.57h2.88c.55,0,1.02-.06,1.4-.17.38-.12.71-.29.98-.51.28-.23.49-.51.65-.85.16-.34.23-.72.23-1.16Z"/>
    <path class="cls-114" d="m824.76,280.37c0,.3-.01.56-.04.76-.03.21-.06.38-.11.51-.05.14-.11.23-.19.29s-.16.09-.26.09h-8.98c-.33,0-.61-.1-.84-.29-.23-.2-.34-.52-.34-.96v-17.79c0-.1.03-.19.1-.27.07-.08.17-.15.33-.2.15-.05.36-.09.61-.12s.58-.05.96-.05.72.02.97.05c.25.03.45.07.61.12.15.05.26.12.33.2.07.08.1.17.1.27v15.76h6.16c.1,0,.19.03.26.08.08.06.14.15.19.27.05.13.09.29.11.5.03.21.04.46.04.76Z"/>
    <path class="cls-114" d="m842.03,280.54c.18.35.3.64.36.85s.02.37-.1.48c-.12.11-.34.18-.66.21s-.76.05-1.32.05c-.47,0-.85-.01-1.12-.03-.27-.02-.49-.05-.64-.1-.16-.04-.27-.11-.34-.19-.07-.08-.13-.18-.18-.3l-3.68-7.07-3.66,7.07c-.06.12-.13.22-.2.3-.07.08-.18.14-.34.19-.16.05-.37.08-.65.1-.28.02-.64.03-1.1.03-.52,0-.93-.02-1.22-.05s-.48-.1-.58-.21c-.1-.11-.12-.27-.06-.48s.19-.49.38-.85l4.69-8.55-4.36-8.04c-.18-.36-.31-.65-.37-.87-.07-.22-.04-.38.08-.48.12-.11.33-.17.64-.2.31-.03.76-.04,1.33-.04.47,0,.85.01,1.13.03.28.02.5.05.66.1.16.04.27.11.34.19.07.08.13.18.19.3l3.44,6.48,3.35-6.48c.06-.12.12-.22.19-.3.07-.08.17-.14.32-.19.15-.05.35-.08.61-.1.26-.02.61-.03,1.07-.03.5,0,.9.01,1.2.04.29.02.49.09.61.2.11.11.14.27.08.48s-.17.5-.34.86l-4.36,7.99,4.65,8.6Z"/>
    <path class="cls-114" d="m865.69,276.16c0,1.03-.19,1.93-.58,2.71-.38.78-.9,1.43-1.56,1.94-.66.52-1.42.91-2.3,1.17s-1.82.39-2.82.39c-.68,0-1.3-.06-1.88-.17-.58-.11-1.09-.24-1.54-.4-.44-.16-.81-.32-1.11-.49-.3-.17-.51-.32-.64-.45-.13-.13-.22-.32-.28-.57-.06-.25-.08-.6-.08-1.07,0-.31.01-.58.03-.79s.05-.38.1-.51c.05-.13.11-.22.18-.28.08-.06.16-.08.26-.08.14,0,.34.08.6.25.26.17.59.35.99.55.4.2.89.39,1.45.55.56.17,1.21.25,1.94.25.48,0,.92-.06,1.3-.17.38-.12.71-.28.98-.49.27-.21.47-.47.61-.79.14-.31.21-.66.21-1.04,0-.44-.12-.83-.36-1.14-.24-.32-.56-.6-.95-.85-.39-.25-.83-.48-1.32-.7-.49-.22-1-.45-1.53-.69s-1.03-.52-1.53-.82c-.49-.31-.94-.68-1.32-1.11-.39-.43-.7-.94-.95-1.52-.24-.58-.36-1.29-.36-2.1,0-.94.17-1.76.52-2.47.35-.71.82-1.3,1.41-1.77.59-.47,1.29-.82,2.09-1.05.8-.23,1.65-.35,2.55-.35.46,0,.93.04,1.39.11.46.07.9.17,1.3.29s.76.26,1.07.41.52.28.62.38c.1.1.17.19.2.26.04.07.07.16.09.28.02.12.04.26.05.44.01.18.02.4.02.66,0,.29,0,.54-.02.74-.02.2-.04.37-.08.5-.04.13-.09.23-.15.29-.07.06-.15.09-.27.09s-.29-.07-.53-.21c-.24-.14-.54-.29-.89-.46-.35-.17-.76-.32-1.23-.45-.46-.14-.97-.2-1.53-.2-.43,0-.81.05-1.14.16-.32.11-.59.25-.81.44-.22.19-.38.41-.48.67-.11.26-.16.54-.16.83,0,.43.12.81.36,1.13.24.32.55.6.95.85.4.25.85.48,1.35.7.5.22,1.02.45,1.54.69s1.04.52,1.54.82c.5.31.95.68,1.35,1.11.39.43.71.93.95,1.51.24.58.36,1.26.36,2.05Z"/>
    <path class="cls-114" d="m883.1,268.4c0,1.1-.17,2.07-.51,2.92s-.84,1.56-1.5,2.14c-.66.58-1.46,1.02-2.41,1.32s-2.08.45-3.37.45h-1.63v6.25c0,.1-.03.19-.1.27-.07.08-.17.15-.33.2-.15.05-.35.09-.61.12s-.58.05-.97.05-.7-.02-.96-.05-.46-.07-.61-.12c-.15-.05-.26-.12-.32-.2-.06-.08-.09-.17-.09-.27v-17.62c0-.47.12-.83.37-1.07.25-.24.57-.36.98-.36h4.62c.46,0,.91.02,1.32.05.42.04.92.11,1.51.23.59.12,1.18.33,1.78.64.6.31,1.11.71,1.54,1.19.42.48.75,1.04.97,1.68.22.64.33,1.36.33,2.16Zm-4.16.29c0-.69-.12-1.25-.36-1.7-.24-.44-.54-.77-.89-.98s-.72-.35-1.11-.4c-.39-.06-.79-.08-1.2-.08h-1.7v6.65h1.79c.64,0,1.17-.09,1.6-.26.43-.17.78-.41,1.05-.72.27-.31.48-.68.62-1.1.14-.43.21-.9.21-1.4Z"/>
    <path class="cls-114" d="m900.7,279.07c0,.25,0,.47-.02.64-.02.18-.04.33-.07.45-.03.13-.07.23-.12.33s-.13.19-.24.31c-.11.12-.33.26-.64.45s-.71.36-1.17.52c-.46.17-.98.3-1.57.42-.59.11-1.23.17-1.92.17-1.34,0-2.55-.21-3.63-.62s-2-1.03-2.75-1.85c-.76-.82-1.34-1.85-1.74-3.08-.4-1.23-.61-2.66-.61-4.3s.22-3.14.67-4.44c.44-1.29,1.06-2.38,1.86-3.25s1.75-1.54,2.87-2c1.11-.45,2.34-.68,3.69-.68.54,0,1.07.05,1.57.14s.97.21,1.4.36c.43.15.81.32,1.16.51.34.19.58.36.72.49.14.14.23.25.28.34s.09.21.12.35c.03.14.05.31.07.5.02.19.02.43.02.71,0,.3-.01.56-.03.77s-.06.38-.11.51c-.05.13-.11.23-.18.29s-.15.09-.24.09c-.15,0-.34-.09-.58-.27-.23-.18-.53-.37-.9-.59-.37-.22-.81-.41-1.32-.59-.51-.18-1.12-.26-1.82-.26-.78,0-1.47.16-2.08.48-.61.32-1.13.77-1.56,1.36-.43.59-.75,1.3-.98,2.14-.22.84-.33,1.78-.33,2.83,0,1.15.12,2.15.36,2.99.24.84.58,1.54,1.01,2.08s.97.95,1.59,1.22c.62.27,1.32.4,2.1.4.71,0,1.32-.08,1.83-.25.51-.17.96-.35,1.32-.55.37-.2.67-.38.91-.54.24-.16.42-.24.55-.24.1,0,.18.02.24.06.06.04.11.12.15.24s.07.29.09.51c.02.22.03.51.03.87Z"/>
  </g>
  <g class="cls-80">
    <polygon class="cls-35" points="994.47 348.61 1092.98 242.97 1092.98 348.61 994.47 348.61"/>
    <polygon class="cls-35" points="992.75 348.61 1092.98 241.13 1092.98 242.97 994.47 348.61 992.75 348.61"/>
    <polygon class="cls-53" points="991.04 348.61 1092.98 239.29 1092.98 241.13 992.75 348.61 991.04 348.61"/>
    <polygon class="cls-36" points="989.32 348.61 1092.98 237.45 1092.98 239.29 991.04 348.61 989.32 348.61"/>
    <polygon class="cls-101" points="987.61 348.61 1092.98 235.61 1092.98 237.45 989.32 348.61 987.61 348.61"/>
    <polygon class="cls-61" points="985.89 348.61 1092.98 233.77 1092.98 235.61 987.61 348.61 985.89 348.61"/>
    <polygon class="cls-28" points="984.18 348.61 1092.98 231.93 1092.98 233.77 985.89 348.61 984.18 348.61"/>
    <polygon class="cls-62" points="982.46 348.61 1092.98 230.09 1092.98 231.93 984.18 348.61 982.46 348.61"/>
    <polygon class="cls-118" points="980.74 348.61 1092.98 228.25 1092.98 230.09 982.46 348.61 980.74 348.61"/>
    <polygon class="cls-69" points="979.03 348.61 1092.98 226.41 1092.98 228.25 980.74 348.61 979.03 348.61"/>
    <polygon class="cls-38" points="977.31 348.61 1092.98 224.57 1092.98 226.41 979.03 348.61 977.31 348.61"/>
    <polygon class="cls-79" points="975.6 348.61 1092.98 222.73 1092.98 224.57 977.31 348.61 975.6 348.61"/>
    <polygon class="cls-97" points="973.88 348.61 1092.98 220.89 1092.98 222.73 975.6 348.61 973.88 348.61"/>
    <polygon class="cls-45" points="972.17 348.61 1092.98 219.05 1092.98 220.89 973.88 348.61 972.17 348.61"/>
    <polygon class="cls-121" points="970.45 348.61 1092.98 217.21 1092.98 219.05 972.17 348.61 970.45 348.61"/>
    <polygon class="cls-63" points="968.74 348.61 1092.98 215.38 1092.98 217.21 970.45 348.61 968.74 348.61"/>
    <polygon class="cls-110" points="967.02 348.61 1092.98 213.54 1092.98 215.38 968.74 348.61 967.02 348.61"/>
    <polygon class="cls-100" points="965.31 348.61 1092.98 211.7 1092.98 213.54 967.02 348.61 965.31 348.61"/>
    <polygon class="cls-17" points="963.59 348.61 1092.98 209.86 1092.98 211.7 965.31 348.61 963.59 348.61"/>
    <polygon class="cls-22" points="961.88 348.61 1092.98 208.02 1092.98 209.86 963.59 348.61 961.88 348.61"/>
    <polygon class="cls-98" points="960.16 348.61 1092.98 206.18 1092.98 208.02 961.88 348.61 960.16 348.61"/>
    <polygon class="cls-81" points="958.44 348.61 1092.98 204.34 1092.98 206.18 960.16 348.61 958.44 348.61"/>
    <polygon class="cls-115" points="956.73 348.61 1092.98 202.5 1092.98 204.34 958.44 348.61 956.73 348.61"/>
    <polygon class="cls-21" points="955.01 348.61 1092.98 200.66 1092.98 202.5 956.73 348.61 955.01 348.61"/>
    <polygon class="cls-14" points="953.3 348.61 1092.98 198.82 1092.98 200.66 955.01 348.61 953.3 348.61"/>
    <polygon class="cls-11" points="951.58 348.61 1092.98 196.98 1092.98 198.82 953.3 348.61 951.58 348.61"/>
    <polygon class="cls-124" points="949.87 348.61 1092.98 195.14 1092.98 196.98 951.58 348.61 949.87 348.61"/>
    <polygon class="cls-64" points="948.15 348.61 1092.98 193.3 1092.98 195.14 949.87 348.61 948.15 348.61"/>
    <polygon class="cls-91" points="946.44 348.61 1092.98 191.46 1092.98 193.3 948.15 348.61 946.44 348.61"/>
    <polygon class="cls-90" points="944.72 348.61 1092.98 189.62 1092.98 191.46 946.44 348.61 944.72 348.61"/>
    <polygon class="cls-94" points="943.01 348.61 1092.98 187.78 1092.98 189.62 944.72 348.61 943.01 348.61"/>
    <polygon class="cls-89" points="941.29 348.61 1092.98 185.94 1092.98 187.78 943.01 348.61 941.29 348.61"/>
    <polygon class="cls-123" points="939.58 348.61 1092.98 184.1 1092.98 185.94 941.29 348.61 939.58 348.61"/>
    <polygon class="cls-27" points="937.86 348.61 1092.98 182.26 1092.98 184.1 939.58 348.61 937.86 348.61"/>
    <polygon class="cls-1" points="936.15 348.61 1092.98 180.42 1092.98 182.26 937.86 348.61 936.15 348.61"/>
    <polygon class="cls-8" points="934.43 348.61 1092.98 178.59 1092.98 180.42 936.15 348.61 934.43 348.61"/>
    <polygon class="cls-102" points="932.71 348.61 1092.98 176.75 1092.98 178.59 934.43 348.61 932.71 348.61"/>
    <polygon class="cls-42" points="931 348.61 1092.98 174.91 1092.98 176.75 932.71 348.61 931 348.61"/>
    <polygon class="cls-112" points="929.28 348.61 1092.98 173.07 1092.98 174.91 931 348.61 929.28 348.61"/>
    <polygon class="cls-33" points="927.57 348.61 1092.98 171.23 1092.98 173.07 929.28 348.61 927.57 348.61"/>
    <polygon class="cls-41" points="925.85 348.61 1092.98 169.39 1092.98 171.23 927.57 348.61 925.85 348.61"/>
    <polygon class="cls-87" points="924.14 348.61 1092.98 167.55 1092.98 169.39 925.85 348.61 924.14 348.61"/>
    <polygon class="cls-65" points="922.42 348.61 1092.98 165.71 1092.98 167.55 924.14 348.61 922.42 348.61"/>
    <polygon class="cls-20" points="920.71 348.61 1092.98 163.87 1092.98 165.71 922.42 348.61 920.71 348.61"/>
    <polygon class="cls-84" points="918.99 348.61 1092.98 162.03 1092.98 163.87 920.71 348.61 918.99 348.61"/>
    <polygon class="cls-15" points="917.28 348.61 1092.98 160.19 1092.98 162.03 918.99 348.61 917.28 348.61"/>
    <polygon class="cls-66" points="915.56 348.61 1092.98 158.35 1092.98 160.19 917.28 348.61 915.56 348.61"/>
    <polygon class="cls-44" points="913.85 348.61 1092.98 156.51 1092.98 158.35 915.56 348.61 913.85 348.61"/>
    <polygon class="cls-7" points="912.13 348.61 1092.98 154.67 1092.98 156.51 913.85 348.61 912.13 348.61"/>
    <polygon class="cls-40" points="910.41 348.61 1092.98 152.83 1092.98 154.67 912.13 348.61 910.41 348.61"/>
    <polygon class="cls-111" points="908.7 348.61 1092.98 150.99 1092.98 152.83 910.41 348.61 908.7 348.61"/>
    <polygon class="cls-113" points="906.98 348.61 1092.98 149.15 1092.98 150.99 908.7 348.61 906.98 348.61"/>
    <polygon class="cls-5" points="905.27 348.61 1092.98 147.31 1092.98 149.15 906.98 348.61 905.27 348.61"/>
    <polygon class="cls-46" points="903.55 348.61 1092.98 145.47 1092.98 147.31 905.27 348.61 903.55 348.61"/>
    <polygon class="cls-46" points="901.84 348.61 1092.98 143.64 1092.98 145.47 903.55 348.61 901.84 348.61"/>
    <polygon class="cls-52" points="900.12 348.61 1092.98 141.8 1092.98 143.64 901.84 348.61 900.12 348.61"/>
    <polygon class="cls-78" points="898.41 348.61 1092.98 139.96 1092.98 141.8 900.12 348.61 898.41 348.61"/>
    <polygon class="cls-93" points="896.69 348.61 1092.98 138.12 1092.98 139.96 898.41 348.61 896.69 348.61"/>
    <polygon class="cls-107" points="894.98 348.61 1092.98 136.28 1092.98 138.12 896.69 348.61 894.98 348.61"/>
    <polygon class="cls-49" points="893.26 348.61 1092.98 134.44 1092.98 136.28 894.98 348.61 893.26 348.61"/>
    <polygon class="cls-74" points="891.55 348.61 1092.98 132.6 1092.98 134.44 893.26 348.61 891.55 348.61"/>
    <polygon class="cls-31" points="889.83 348.61 1092.98 130.76 1092.98 132.6 891.55 348.61 889.83 348.61"/>
    <polygon class="cls-85" points="888.12 348.61 1092.98 128.92 1092.98 130.76 889.83 348.61 888.12 348.61"/>
    <polygon class="cls-85" points="886.4 348.61 1092.98 127.08 1092.98 128.92 888.12 348.61 886.4 348.61"/>
    <polygon class="cls-103" points="884.68 348.61 1092.98 125.24 1092.98 127.08 886.4 348.61 884.68 348.61"/>
    <polygon class="cls-92" points="882.97 348.61 1092.98 123.4 1092.98 125.24 884.68 348.61 882.97 348.61"/>
    <polygon class="cls-92" points="881.25 348.61 1092.98 121.56 1092.98 123.4 882.97 348.61 881.25 348.61"/>
    <polygon class="cls-50" points="879.54 348.61 1092.98 119.72 1092.98 121.56 881.25 348.61 879.54 348.61"/>
    <polygon class="cls-50" points="877.82 348.61 1092.98 117.88 1092.98 119.72 879.54 348.61 877.82 348.61"/>
    <polygon class="cls-106" points="876.11 348.61 1092.98 116.04 1092.98 117.88 877.82 348.61 876.11 348.61"/>
    <polygon class="cls-56" points="874.39 348.61 1092.98 114.2 1092.98 116.04 876.11 348.61 874.39 348.61"/>
    <polygon class="cls-12" points="872.68 348.61 1092.98 112.36 1092.98 114.2 874.39 348.61 872.68 348.61"/>
    <polygon class="cls-12" points="870.96 348.61 1092.98 110.52 1092.98 112.36 872.68 348.61 870.96 348.61"/>
    <polygon class="cls-6" points="870.51 348.61 869.83 347.98 1092.98 108.68 1092.98 110.52 870.96 348.61 870.51 348.61"/>
    <polygon class="cls-6" points="869.83 347.98 868.92 347.13 1092.98 106.85 1092.98 108.68 869.83 347.98"/>
    <polygon class="cls-6" points="868.92 347.13 868 346.27 1092.98 105.01 1092.98 106.85 868.92 347.13"/>
    <polygon class="cls-67" points="868 346.27 867.08 345.42 1092.98 103.17 1092.98 105.01 868 346.27"/>
    <polygon class="cls-59" points="867.08 345.42 866.16 344.56 1092.98 101.33 1092.98 103.17 867.08 345.42"/>
    <polygon class="cls-59" points="866.16 344.56 865.25 343.7 1092.98 99.49 1092.98 101.33 866.16 344.56"/>
    <polygon class="cls-19" points="865.25 343.7 864.33 342.85 1092.98 97.65 1092.98 99.49 865.25 343.7"/>
    <polygon class="cls-19" points="864.33 342.85 863.41 341.99 1092.98 95.81 1092.98 97.65 864.33 342.85"/>
    <polygon class="cls-19" points="863.41 341.99 862.49 341.14 1092.98 93.97 1092.98 95.81 863.41 341.99"/>
    <polygon class="cls-68" points="862.49 341.14 861.58 340.28 1092.98 92.13 1092.98 93.97 862.49 341.14"/>
    <polygon class="cls-122" points="861.58 340.28 860.66 339.43 1092.98 90.29 1092.98 92.13 861.58 340.28"/>
    <polygon class="cls-122" points="860.66 339.43 859.74 338.57 1092.98 88.45 1092.98 90.29 860.66 339.43"/>
    <polygon class="cls-122" points="859.74 338.57 858.82 337.71 1092.98 86.61 1092.98 88.45 859.74 338.57"/>
    <polygon class="cls-122" points="858.82 337.71 857.91 336.86 1092.98 84.77 1092.98 86.61 858.82 337.71"/>
    <polygon class="cls-122" points="857.91 336.86 856.99 336 1092.98 82.93 1092.98 84.77 857.91 336.86"/>
    <polygon class="cls-24" points="856.99 336 856.07 335.15 1092.98 81.09 1092.98 82.93 856.99 336"/>
    <polygon class="cls-86" points="856.07 335.15 855.15 334.29 1092.98 79.25 1092.98 81.09 856.07 335.15"/>
    <polygon class="cls-86" points="855.15 334.29 854.24 333.44 1092.98 77.41 1092.98 79.25 855.15 334.29"/>
    <polygon class="cls-86" points="854.24 333.44 853.32 332.58 1092.98 75.57 1092.98 77.41 854.24 333.44"/>
    <polygon class="cls-86" points="853.32 332.58 852.4 331.73 1092.98 73.73 1092.98 75.57 853.32 332.58"/>
    <polygon class="cls-86" points="852.4 331.73 851.48 330.87 1092.98 71.89 1092.98 73.73 852.4 331.73"/>
    <polygon class="cls-120" points="851.48 330.87 850.57 330.01 1092.98 70.06 1092.98 71.89 851.48 330.87"/>
    <polygon class="cls-120" points="850.57 330.01 849.65 329.16 1092.07 69.19 1092.98 70.04 1092.98 70.06 850.57 330.01"/>
    <rect class="cls-120" x="792.67" y="198.12" width="355.46" height="1.25" transform="translate(163.24 772.91) rotate(-47)"/>
    <rect class="cls-120" x="791.75" y="197.26" width="355.46" height="1.25" transform="translate(163.57 771.97) rotate(-47)"/>
    <rect class="cls-120" x="790.84" y="196.41" width="355.46" height="1.25" transform="translate(163.9 771.02) rotate(-47)"/>
    <rect class="cls-120" x="789.92" y="195.55" width="355.46" height="1.25" transform="translate(164.24 770.08) rotate(-47)"/>
    <rect class="cls-120" x="789" y="194.7" width="355.46" height="1.25" transform="translate(164.57 769.14) rotate(-47)"/>
    <rect class="cls-120" x="788.08" y="193.84" width="355.46" height="1.25" transform="translate(164.9 768.19) rotate(-47)"/>
    <rect class="cls-116" x="787.17" y="192.99" width="355.46" height="1.25" transform="translate(165.24 767.25) rotate(-47)"/>
    <rect class="cls-116" x="786.25" y="192.13" width="355.46" height="1.25" transform="translate(165.57 766.31) rotate(-47)"/>
    <rect class="cls-116" x="785.33" y="191.27" width="355.46" height="1.25" transform="translate(165.91 765.36) rotate(-47)"/>
    <rect class="cls-116" x="784.41" y="190.42" width="355.46" height="1.25" transform="translate(166.24 764.42) rotate(-47)"/>
    <rect class="cls-114" x="783.5" y="189.56" width="355.46" height="1.25" transform="translate(166.57 763.48) rotate(-47)"/>
    <rect class="cls-114" x="782.58" y="188.71" width="355.46" height="1.25" transform="translate(166.91 762.53) rotate(-47)"/>
    <rect class="cls-114" x="781.66" y="187.85" width="355.46" height="1.25" transform="translate(167.24 761.59) rotate(-47)"/>
    <rect class="cls-114" x="780.74" y="187" width="355.46" height="1.25" transform="translate(167.58 760.65) rotate(-47)"/>
    <rect class="cls-114" x="779.83" y="186.14" width="355.46" height="1.25" transform="translate(167.91 759.71) rotate(-47)"/>
    <rect class="cls-114" x="778.91" y="185.29" width="355.46" height="1.25" transform="translate(168.24 758.76) rotate(-47)"/>
    <rect class="cls-114" x="777.99" y="184.43" width="355.46" height="1.25" transform="translate(168.58 757.82) rotate(-47)"/>
    <rect class="cls-114" x="777.07" y="183.57" width="355.46" height="1.25" transform="translate(168.91 756.88) rotate(-47)"/>
    <rect class="cls-114" x="776.16" y="182.72" width="355.46" height="1.25" transform="translate(169.25 755.93) rotate(-47)"/>
    <rect class="cls-114" x="775.24" y="181.86" width="355.46" height="1.25" transform="translate(169.58 754.99) rotate(-47)"/>
    <rect class="cls-114" x="774.32" y="181.01" width="355.46" height="1.25" transform="translate(169.91 754.05) rotate(-47)"/>
    <rect class="cls-114" x="773.4" y="180.15" width="355.46" height="1.25" transform="translate(170.25 753.1) rotate(-47)"/>
    <rect class="cls-114" x="772.49" y="179.3" width="355.46" height="1.25" transform="translate(170.58 752.16) rotate(-47)"/>
    <rect class="cls-114" x="771.57" y="178.44" width="355.46" height="1.25" transform="translate(170.92 751.22) rotate(-47)"/>
    <rect class="cls-114" x="770.65" y="177.59" width="355.46" height="1.25" transform="translate(171.25 750.27) rotate(-47)"/>
    <rect class="cls-114" x="769.73" y="176.73" width="355.46" height="1.25" transform="translate(171.58 749.33) rotate(-47)"/>
    <rect class="cls-114" x="768.82" y="175.87" width="355.46" height="1.25" transform="translate(171.92 748.39) rotate(-47)"/>
    <rect class="cls-114" x="767.9" y="175.02" width="355.46" height="1.25" transform="translate(172.25 747.45) rotate(-47)"/>
    <rect class="cls-114" x="766.98" y="174.16" width="355.46" height="1.25" transform="translate(172.59 746.5) rotate(-47)"/>
    <rect class="cls-114" x="766.06" y="173.31" width="355.46" height="1.25" transform="translate(172.92 745.56) rotate(-47)"/>
    <rect class="cls-114" x="765.15" y="172.45" width="355.46" height="1.25" transform="translate(173.25 744.62) rotate(-47)"/>
    <rect class="cls-114" x="764.23" y="171.6" width="355.46" height="1.25" transform="translate(173.59 743.67) rotate(-47)"/>
    <rect class="cls-114" x="763.31" y="170.74" width="355.46" height="1.25" transform="translate(173.92 742.73) rotate(-47)"/>
    <rect class="cls-114" x="762.39" y="169.89" width="355.46" height="1.25" transform="translate(174.26 741.79) rotate(-47)"/>
    <rect class="cls-114" x="761.48" y="169.03" width="355.46" height="1.25" transform="translate(174.59 740.84) rotate(-47)"/>
    <rect class="cls-114" x="760.56" y="168.17" width="355.46" height="1.25" transform="translate(174.92 739.9) rotate(-47)"/>
    <rect class="cls-114" x="759.64" y="167.32" width="355.46" height="1.25" transform="translate(175.26 738.96) rotate(-47)"/>
    <rect class="cls-114" x="758.72" y="166.46" width="355.46" height="1.25" transform="translate(175.59 738.01) rotate(-47)"/>
    <rect class="cls-114" x="757.81" y="165.61" width="355.46" height="1.25" transform="translate(175.93 737.07) rotate(-47)"/>
    <rect class="cls-114" x="756.89" y="164.75" width="355.46" height="1.25" transform="translate(176.26 736.13) rotate(-47)"/>
    <rect class="cls-114" x="755.97" y="163.9" width="355.46" height="1.25" transform="translate(176.59 735.18) rotate(-47)"/>
    <rect class="cls-114" x="755.05" y="163.04" width="355.46" height="1.25" transform="translate(176.93 734.24) rotate(-47)"/>
    <rect class="cls-114" x="754.14" y="162.18" width="355.46" height="1.25" transform="translate(177.26 733.3) rotate(-47)"/>
    <rect class="cls-114" x="753.22" y="161.33" width="355.46" height="1.25" transform="translate(177.6 732.36) rotate(-47)"/>
    <rect class="cls-114" x="752.3" y="160.47" width="355.46" height="1.25" transform="translate(177.93 731.41) rotate(-47)"/>
    <rect class="cls-114" x="751.38" y="159.62" width="355.46" height="1.25" transform="translate(178.26 730.47) rotate(-47)"/>
    <rect class="cls-114" x="750.47" y="158.76" width="355.46" height="1.25" transform="translate(178.6 729.53) rotate(-47)"/>
    <rect class="cls-114" x="749.55" y="157.91" width="355.46" height="1.25" transform="translate(178.93 728.58) rotate(-47)"/>
    <rect class="cls-114" x="748.63" y="157.05" width="355.46" height="1.25" transform="translate(179.27 727.64) rotate(-47)"/>
    <rect class="cls-114" x="747.71" y="156.2" width="355.46" height="1.25" transform="translate(179.6 726.7) rotate(-47)"/>
    <rect class="cls-114" x="746.8" y="155.34" width="355.46" height="1.25" transform="translate(179.93 725.75) rotate(-47)"/>
    <rect class="cls-114" x="745.88" y="154.48" width="355.46" height="1.25" transform="translate(180.27 724.81) rotate(-47)"/>
    <rect class="cls-114" x="744.96" y="153.63" width="355.46" height="1.25" transform="translate(180.6 723.87) rotate(-47)"/>
    <rect class="cls-114" x="744.04" y="152.77" width="355.46" height="1.25" transform="translate(180.94 722.92) rotate(-47)"/>
    <rect class="cls-114" x="743.13" y="151.92" width="355.46" height="1.25" transform="translate(181.27 721.98) rotate(-47)"/>
    <rect class="cls-114" x="742.21" y="151.06" width="355.46" height="1.25" transform="translate(181.6 721.04) rotate(-47)"/>
    <rect class="cls-114" x="741.29" y="150.21" width="355.46" height="1.25" transform="translate(181.94 720.1) rotate(-47)"/>
    <rect class="cls-114" x="740.37" y="149.35" width="355.46" height="1.25" transform="translate(182.27 719.15) rotate(-47)"/>
    <rect class="cls-114" x="739.46" y="148.5" width="355.46" height="1.25" transform="translate(182.61 718.21) rotate(-47)"/>
    <rect class="cls-114" x="738.63" y="147.85" width="355.46" height="1.01" transform="translate(182.91 717.36) rotate(-47)"/>
    <rect class="cls-114" x="737.89" y="147.16" width="355.46" height="1.01" transform="translate(183.18 716.6) rotate(-47)"/>
    <rect class="cls-114" x="737.15" y="146.47" width="355.46" height="1.01" transform="translate(183.44 715.84) rotate(-47)"/>
    <rect class="cls-114" x="736.41" y="145.78" width="355.46" height="1.01" transform="translate(183.71 715.08) rotate(-47)"/>
    <rect class="cls-114" x="735.68" y="145.09" width="355.46" height="1.01" transform="translate(183.98 714.32) rotate(-47)"/>
    <rect class="cls-114" x="734.94" y="144.4" width="355.46" height="1.01" transform="translate(184.25 713.57) rotate(-47)"/>
    <rect class="cls-114" x="734.2" y="143.72" width="355.46" height="1.01" transform="translate(184.52 712.81) rotate(-47)"/>
    <rect class="cls-114" x="733.46" y="143.03" width="355.46" height="1.01" transform="translate(184.79 712.05) rotate(-47)"/>
    <rect class="cls-114" x="732.72" y="142.34" width="355.46" height="1.01" transform="translate(185.06 711.29) rotate(-47)"/>
    <rect class="cls-114" x="731.99" y="141.65" width="355.46" height="1.01" transform="translate(185.32 710.53) rotate(-47)"/>
    <rect class="cls-114" x="731.25" y="140.96" width="355.46" height="1.01" transform="translate(185.59 709.77) rotate(-47)"/>
    <rect class="cls-114" x="730.51" y="140.28" width="355.46" height="1.01" transform="translate(185.86 709.01) rotate(-47)"/>
    <rect class="cls-114" x="729.77" y="139.59" width="355.46" height="1.01" transform="translate(186.13 708.25) rotate(-47)"/>
    <rect class="cls-114" x="729.03" y="138.9" width="355.46" height="1.01" transform="translate(186.4 707.5) rotate(-47)"/>
    <rect class="cls-114" x="728.3" y="138.21" width="355.46" height="1.01" transform="translate(186.67 706.74) rotate(-47)"/>
    <rect class="cls-114" x="727.56" y="137.52" width="355.46" height="1.01" transform="translate(186.94 705.98) rotate(-47)"/>
    <rect class="cls-114" x="726.82" y="136.83" width="355.46" height="1.01" transform="translate(187.21 705.22) rotate(-47)"/>
    <rect class="cls-114" x="726.08" y="136.15" width="355.46" height="1.01" transform="translate(187.47 704.46) rotate(-47)"/>
    <rect class="cls-114" x="725.34" y="135.46" width="355.46" height="1.01" transform="translate(187.74 703.7) rotate(-47)"/>
    <rect class="cls-114" x="724.6" y="134.77" width="355.46" height="1.01" transform="translate(188.01 702.94) rotate(-47)"/>
    <rect class="cls-114" x="723.87" y="134.08" width="355.46" height="1.01" transform="translate(188.28 702.19) rotate(-47)"/>
    <rect class="cls-114" x="723.13" y="133.39" width="355.46" height="1.01" transform="translate(188.55 701.43) rotate(-47)"/>
    <rect class="cls-114" x="722.39" y="132.7" width="355.46" height="1.01" transform="translate(188.82 700.67) rotate(-47)"/>
    <rect class="cls-114" x="721.65" y="132.02" width="355.46" height="1.01" transform="translate(189.09 699.91) rotate(-47)"/>
    <rect class="cls-114" x="720.91" y="131.33" width="355.46" height="1.01" transform="translate(189.35 699.15) rotate(-47)"/>
    <rect class="cls-114" x="720.18" y="130.64" width="355.46" height="1.01" transform="translate(189.62 698.39) rotate(-47)"/>
    <rect class="cls-114" x="719.44" y="129.95" width="355.46" height="1.01" transform="translate(189.89 697.63) rotate(-47)"/>
    <polygon class="cls-114" points="775.59 260.1 774.85 259.41 1016.75 0 1017.88 0 1018.01 .13 775.59 260.1"/>
    <polygon class="cls-114" points="774.85 259.41 774.11 258.72 1015.37 0 1016.75 0 774.85 259.41"/>
    <polygon class="cls-114" points="774.11 258.72 773.37 258.03 1013.99 0 1015.37 0 774.11 258.72"/>
    <polygon class="cls-114" points="773.37 258.03 772.64 257.34 1012.61 0 1013.99 0 773.37 258.03"/>
    <polygon class="cls-114" points="772.64 257.34 771.9 256.65 1011.23 0 1012.61 0 772.64 257.34"/>
    <polygon class="cls-114" points="771.9 256.65 771.16 255.97 1009.85 0 1011.23 0 771.9 256.65"/>
    <polygon class="cls-114" points="771.16 255.97 770.42 255.28 1008.47 0 1009.85 0 771.16 255.97"/>
    <polygon class="cls-114" points="770.42 255.28 769.68 254.59 1007.09 0 1008.47 0 770.42 255.28"/>
    <polygon class="cls-114" points="769.68 254.59 768.95 253.9 1005.71 0 1007.09 0 769.68 254.59"/>
    <polygon class="cls-114" points="768.95 253.9 768.21 253.21 1004.33 0 1005.71 0 768.95 253.9"/>
    <polygon class="cls-116" points="768.21 253.21 767.47 252.53 1002.95 0 1004.33 0 768.21 253.21"/>
    <polygon class="cls-116" points="767.47 252.53 766.73 251.84 1001.57 0 1002.95 0 767.47 252.53"/>
    <polygon class="cls-116" points="766.73 251.84 765.99 251.15 1000.19 0 1001.57 0 766.73 251.84"/>
    <polygon class="cls-116" points="765.99 251.15 765.25 250.46 998.81 0 1000.19 0 765.99 251.15"/>
    <polygon class="cls-120" points="765.25 250.46 764.52 249.77 997.43 0 998.81 0 765.25 250.46"/>
    <polygon class="cls-120" points="764.52 249.77 763.78 249.08 996.05 0 997.43 0 764.52 249.77"/>
    <polygon class="cls-120" points="763.78 249.08 763.04 248.4 994.67 0 996.05 0 763.78 249.08"/>
    <polygon class="cls-120" points="763.04 248.4 762.3 247.71 993.29 0 994.67 0 763.04 248.4"/>
    <polygon class="cls-120" points="762.3 247.71 761.56 247.02 991.91 0 993.29 0 762.3 247.71"/>
    <polygon class="cls-120" points="761.56 247.02 760.83 246.33 990.53 0 991.91 0 761.56 247.02"/>
    <polygon class="cls-120" points="760.83 246.33 760.09 245.64 989.15 0 990.53 0 760.83 246.33"/>
    <polygon class="cls-120" points="760.09 245.64 759.35 244.95 987.77 0 989.15 0 760.09 245.64"/>
    <polygon class="cls-86" points="759.35 244.95 758.61 244.27 986.39 0 987.77 0 759.35 244.95"/>
    <polygon class="cls-86" points="758.61 244.27 757.87 243.58 985.01 0 986.39 0 758.61 244.27"/>
    <polygon class="cls-86" points="757.87 243.58 757.14 242.89 983.63 0 985.01 0 757.87 243.58"/>
    <polygon class="cls-86" points="757.14 242.89 756.4 242.2 982.25 0 983.63 0 757.14 242.89"/>
    <polygon class="cls-24" points="756.4 242.2 755.66 241.51 980.87 0 982.25 0 756.4 242.2"/>
    <polygon class="cls-24" points="755.66 241.51 754.92 240.82 979.49 0 980.87 0 755.66 241.51"/>
    <polygon class="cls-122" points="754.92 240.82 754.18 240.14 978.11 0 979.49 0 754.92 240.82"/>
    <polygon class="cls-122" points="754.18 240.14 753.45 239.45 976.73 0 978.11 0 754.18 240.14"/>
    <polygon class="cls-122" points="753.45 239.45 752.71 238.76 975.35 0 976.73 0 753.45 239.45"/>
    <polygon class="cls-122" points="752.71 238.76 751.97 238.07 973.97 0 975.35 0 752.71 238.76"/>
    <polygon class="cls-122" points="751.97 238.07 751.23 237.38 972.59 0 973.97 0 751.97 238.07"/>
    <polygon class="cls-19" points="751.23 237.38 750.49 236.69 971.21 0 972.59 0 751.23 237.38"/>
    <polygon class="cls-19" points="750.49 236.69 749.76 236.01 969.83 0 971.21 0 750.49 236.69"/>
    <polygon class="cls-19" points="749.76 236.01 749.02 235.32 968.46 0 969.83 0 749.76 236.01"/>
    <polygon class="cls-19" points="749.02 235.32 748.28 234.63 967.08 0 968.46 0 749.02 235.32"/>
    <polygon class="cls-59" points="748.28 234.63 747.54 233.94 965.7 0 967.08 0 748.28 234.63"/>
    <polygon class="cls-59" points="747.54 233.94 746.8 233.25 964.32 0 965.7 0 747.54 233.94"/>
    <polygon class="cls-67" points="746.8 233.25 746.06 232.57 962.94 0 964.32 0 746.8 233.25"/>
    <polygon class="cls-6" points="746.06 232.57 745.33 231.88 961.56 0 962.94 0 746.06 232.57"/>
    <polygon class="cls-6" points="745.33 231.88 744.59 231.19 960.18 0 961.56 0 745.33 231.88"/>
    <polygon class="cls-6" points="744.59 231.19 744.37 230.99 744.37 229.94 958.8 0 960.18 0 744.59 231.19"/>
    <polygon class="cls-12" points="744.37 228.46 957.42 0 958.8 0 744.37 229.94 744.37 228.46"/>
    <polygon class="cls-12" points="744.37 226.98 956.04 0 957.42 0 744.37 228.46 744.37 226.98"/>
    <polygon class="cls-56" points="744.37 225.5 954.66 0 956.04 0 744.37 226.98 744.37 225.5"/>
    <polygon class="cls-56" points="744.37 224.02 953.28 0 954.66 0 744.37 225.5 744.37 224.02"/>
    <polygon class="cls-106" points="744.37 222.54 951.9 0 953.28 0 744.37 224.02 744.37 222.54"/>
    <polygon class="cls-50" points="744.37 221.06 950.52 0 951.9 0 744.37 222.54 744.37 221.06"/>
    <polygon class="cls-50" points="744.37 219.58 949.14 0 950.52 0 744.37 221.06 744.37 219.58"/>
    <polygon class="cls-92" points="744.37 218.11 947.76 0 949.14 0 744.37 219.58 744.37 218.11"/>
    <polygon class="cls-92" points="744.37 216.63 946.38 0 947.76 0 744.37 218.11 744.37 216.63"/>
    <polygon class="cls-103" points="744.37 215.15 945 0 946.38 0 744.37 216.63 744.37 215.15"/>
    <polygon class="cls-85" points="744.37 213.67 943.62 0 945 0 744.37 215.15 744.37 213.67"/>
    <polygon class="cls-85" points="744.37 212.19 942.24 0 943.62 0 744.37 213.67 744.37 212.19"/>
    <polygon class="cls-31" points="744.37 210.71 940.86 0 942.24 0 744.37 212.19 744.37 210.71"/>
    <polygon class="cls-31" points="744.37 209.23 939.48 0 940.86 0 744.37 210.71 744.37 209.23"/>
    <polygon class="cls-49" points="744.37 207.75 938.1 0 939.48 0 744.37 209.23 744.37 207.75"/>
    <polygon class="cls-107" points="744.37 206.27 936.72 0 938.1 0 744.37 207.75 744.37 206.27"/>
    <polygon class="cls-104" points="744.37 204.79 935.34 0 936.72 0 744.37 206.27 744.37 204.79"/>
    <polygon class="cls-93" points="744.37 203.31 933.96 0 935.34 0 744.37 204.79 744.37 203.31"/>
    <polygon class="cls-78" points="744.37 201.83 932.58 0 933.96 0 744.37 203.31 744.37 201.83"/>
    <polygon class="cls-52" points="744.37 200.35 931.2 0 932.58 0 744.37 201.83 744.37 200.35"/>
    <polygon class="cls-125" points="744.37 198.87 929.82 0 931.2 0 744.37 200.35 744.37 198.87"/>
    <polygon class="cls-46" points="744.37 197.39 928.44 0 929.82 0 744.37 198.87 744.37 197.39"/>
    <polygon class="cls-5" points="744.37 195.91 927.06 0 928.44 0 744.37 197.39 744.37 195.91"/>
    <polygon class="cls-57" points="744.37 194.43 925.68 0 927.06 0 744.37 195.91 744.37 194.43"/>
    <polygon class="cls-96" points="744.37 192.95 924.3 0 925.68 0 744.37 194.43 744.37 192.95"/>
    <polygon class="cls-111" points="744.37 191.47 922.92 0 924.3 0 744.37 192.95 744.37 191.47"/>
    <polygon class="cls-40" points="744.37 189.99 921.54 0 922.92 0 744.37 191.47 744.37 189.99"/>
    <polygon class="cls-7" points="744.37 188.51 920.16 0 921.54 0 744.37 189.99 744.37 188.51"/>
    <polygon class="cls-44" points="744.37 187.03 918.78 0 920.16 0 744.37 188.51 744.37 187.03"/>
    <polygon class="cls-66" points="744.37 185.55 917.4 0 918.78 0 744.37 187.03 744.37 185.55"/>
    <polygon class="cls-10" points="744.37 184.07 916.02 0 917.4 0 744.37 185.55 744.37 184.07"/>
    <polygon class="cls-4" points="744.37 182.59 914.64 0 916.02 0 744.37 184.07 744.37 182.59"/>
    <polygon class="cls-84" points="744.37 181.11 913.26 0 914.64 0 744.37 182.59 744.37 181.11"/>
    <polygon class="cls-73" points="744.37 179.63 911.88 0 913.26 0 744.37 181.11 744.37 179.63"/>
    <polygon class="cls-119" points="744.37 178.15 910.5 0 911.88 0 744.37 179.63 744.37 178.15"/>
    <polygon class="cls-26" points="744.37 176.67 909.12 0 910.5 0 744.37 178.15 744.37 176.67"/>
    <polygon class="cls-75" points="744.37 175.19 907.74 0 909.12 0 744.37 176.67 744.37 175.19"/>
    <polygon class="cls-105" points="744.37 173.71 906.36 0 907.74 0 744.37 175.19 744.37 173.71"/>
    <polygon class="cls-25" points="744.37 172.23 904.98 0 906.36 0 744.37 173.71 744.37 172.23"/>
    <polygon class="cls-95" points="744.37 170.75 903.6 0 904.98 0 744.37 172.23 744.37 170.75"/>
    <polygon class="cls-42" points="744.37 169.27 902.22 0 903.6 0 744.37 170.75 744.37 169.27"/>
    <polygon class="cls-72" points="744.37 167.79 900.84 0 902.22 0 744.37 169.27 744.37 167.79"/>
    <polygon class="cls-8" points="744.37 166.31 899.46 0 900.84 0 744.37 167.79 744.37 166.31"/>
    <polygon class="cls-1" points="744.37 164.83 898.08 0 899.46 0 744.37 166.31 744.37 164.83"/>
    <polygon class="cls-60" points="744.37 163.35 896.7 0 898.08 0 744.37 164.83 744.37 163.35"/>
    <polygon class="cls-29" points="744.37 161.87 895.32 0 896.7 0 744.37 163.35 744.37 161.87"/>
    <polygon class="cls-13" points="744.37 160.39 893.94 0 895.32 0 744.37 161.87 744.37 160.39"/>
    <polygon class="cls-55" points="744.37 158.92 892.56 0 893.94 0 744.37 160.39 744.37 158.92"/>
    <polygon class="cls-23" points="744.37 157.44 891.18 0 892.56 0 744.37 158.92 744.37 157.44"/>
    <polygon class="cls-90" points="744.37 155.96 889.8 0 891.18 0 744.37 157.44 744.37 155.96"/>
    <polygon class="cls-76" points="744.37 154.48 888.42 0 889.8 0 744.37 155.96 744.37 154.48"/>
    <polygon class="cls-117" points="744.37 153 887.04 0 888.42 0 744.37 154.48 744.37 153"/>
    <polygon class="cls-16" points="744.37 151.52 885.66 0 887.04 0 744.37 153 744.37 151.52"/>
    <polygon class="cls-2" points="744.37 150.04 884.28 0 885.66 0 744.37 151.52 744.37 150.04"/>
    <polygon class="cls-39" points="744.37 148.56 882.9 0 884.28 0 744.37 150.04 744.37 148.56"/>
    <polygon class="cls-51" points="744.37 147.08 881.52 0 882.9 0 744.37 148.56 744.37 147.08"/>
    <polygon class="cls-21" points="744.37 145.6 880.14 0 881.52 0 744.37 147.08 744.37 145.6"/>
    <polygon class="cls-71" points="744.37 144.12 878.76 0 880.14 0 744.37 145.6 744.37 144.12"/>
    <polygon class="cls-32" points="744.37 142.64 877.38 0 878.76 0 744.37 144.12 744.37 142.64"/>
    <polygon class="cls-34" points="744.37 141.16 876 0 877.38 0 744.37 142.64 744.37 141.16"/>
    <polygon class="cls-98" points="744.37 139.68 874.62 0 876 0 744.37 141.16 744.37 139.68"/>
    <polygon class="cls-22" points="744.37 138.2 873.24 0 874.62 0 744.37 139.68 744.37 138.2"/>
    <polygon class="cls-99" points="744.37 136.72 871.86 0 873.24 0 744.37 138.2 744.37 136.72"/>
    <polygon class="cls-43" points="744.37 135.24 870.48 0 871.86 0 744.37 136.72 744.37 135.24"/>
    <polygon class="cls-30" points="744.37 133.76 869.1 0 870.48 0 744.37 135.24 744.37 133.76"/>
    <polygon class="cls-58" points="744.37 132.28 867.72 0 869.1 0 744.37 133.76 744.37 132.28"/>
    <polygon class="cls-63" points="744.37 130.8 866.34 0 867.72 0 744.37 132.28 744.37 130.8"/>
    <polygon class="cls-121" points="744.37 129.32 864.96 0 866.34 0 744.37 130.8 744.37 129.32"/>
    <polygon class="cls-37" points="744.37 127.84 863.58 0 864.96 0 744.37 129.32 744.37 127.84"/>
    <polygon class="cls-48" points="744.37 126.36 862.2 0 863.58 0 744.37 127.84 744.37 126.36"/>
    <polygon class="cls-70" points="744.37 124.88 860.82 0 862.2 0 744.37 126.36 744.37 124.88"/>
    <polygon class="cls-54" points="744.37 123.4 859.44 0 860.82 0 744.37 124.88 744.37 123.4"/>
    <polygon class="cls-3" points="744.37 121.92 858.06 0 859.44 0 744.37 123.4 744.37 121.92"/>
    <polygon class="cls-69" points="744.37 120.44 856.68 0 858.06 0 744.37 121.92 744.37 120.44"/>
    <polygon class="cls-82" points="744.37 118.96 855.3 0 856.68 0 744.37 120.44 744.37 118.96"/>
    <polygon class="cls-47" points="744.37 117.48 853.92 0 855.3 0 744.37 118.96 744.37 117.48"/>
    <polygon class="cls-108" points="744.37 116 852.54 0 853.92 0 744.37 117.48 744.37 116"/>
    <polygon class="cls-28" points="744.37 114.52 851.16 0 852.54 0 744.37 116 744.37 114.52"/>
    <polygon class="cls-61" points="744.37 113.04 849.78 0 851.16 0 744.37 114.52 744.37 113.04"/>
    <polygon class="cls-109" points="744.37 111.56 848.4 0 849.78 0 744.37 113.04 744.37 111.56"/>
    <polygon class="cls-77" points="744.37 110.08 847.02 0 848.4 0 744.37 111.56 744.37 110.08"/>
    <polygon class="cls-9" points="744.37 108.6 845.64 0 847.02 0 744.37 110.08 744.37 108.6"/>
    <polygon class="cls-88" points="744.37 107.12 844.26 0 845.64 0 744.37 108.6 744.37 107.12"/>
    <polygon class="cls-35" points="744.37 105.64 842.88 0 844.26 0 744.37 107.12 744.37 105.64"/>
    <polygon class="cls-35" points="842.88 0 744.37 105.64 744.37 0 842.88 0"/>
  </g>
  <polygon class="cls-126" points="565.21 274.8 558.64 268.22 558.64 272.5 0 272.5 0 277.1 558.64 277.1 558.64 281.37 565.21 274.8"/>
</svg>